<?xml version="1.0" encoding="utf-8" standalone="no"?>
<!DOCTYPE svg PUBLIC "-//W3C//DTD SVG 1.1//EN"
  "http://www.w3.org/Graphics/SVG/1.1/DTD/svg11.dtd">
<svg xmlns:xlink="http://www.w3.org/1999/xlink" width="644.8pt" height="335.2pt" viewBox="0 0 644.8 335.2" xmlns="http://www.w3.org/2000/svg" version="1.1">
 <metadata>
  <rdf:RDF xmlns:dc="http://purl.org/dc/elements/1.1/" xmlns:cc="http://creativecommons.org/ns#" xmlns:rdf="http://www.w3.org/1999/02/22-rdf-syntax-ns#">
   <cc:Work>
    <dc:type rdf:resource="http://purl.org/dc/dcmitype/StillImage"/>
    <dc:date>2026-07-22T12:03:01.170594</dc:date>
    <dc:format>image/svg+xml</dc:format>
    <dc:creator>
     <cc:Agent>
      <dc:title>Matplotlib v3.10.7, https://matplotlib.org/</dc:title>
     </cc:Agent>
    </dc:creator>
   </cc:Work>
  </rdf:RDF>
 </metadata>
 <defs>
  <style type="text/css">*{stroke-linejoin: round; stroke-linecap: butt}</style>
 </defs>
 <g id="figure_1">
  <g id="patch_1">
   <path d="M 0 335.2 
L 644.8 335.2 
L 644.8 0 
L 0 0 
L 0 335.2 
z
" style="fill: none"/>
  </g>
  <g id="axes_1">
   <g id="patch_2">
    <path d="M 7.2 328 
L 637.6 328 
L 637.6 7.2 
L 7.2 7.2 
L 7.2 328 
z
" style="fill: none"/>
   </g>
   <g id="FillBetweenPolyCollection_1">
    <path d="M 46.060274 167.6 
L 46.060274 167.6 
L 46.521224 167.6 
L 46.982175 167.6 
L 47.443125 167.6 
L 47.904075 167.6 
L 48.365026 167.6 
L 48.825976 167.6 
L 49.286926 167.6 
L 49.747877 167.6 
L 50.208827 167.6 
L 50.669777 167.6 
L 51.130728 167.6 
L 51.591678 167.6 
L 52.052628 167.6 
L 52.513579 167.6 
L 52.974529 167.6 
L 53.435479 167.6 
L 53.89643 167.6 
L 54.35738 167.6 
L 54.81833 167.6 
L 55.279281 167.6 
L 55.740231 167.6 
L 56.201181 167.6 
L 56.662132 167.6 
L 57.123082 167.6 
L 57.584032 167.6 
L 58.044983 167.6 
L 58.505933 167.6 
L 58.966883 167.6 
L 59.427834 167.6 
L 59.888784 167.6 
L 60.349734 167.6 
L 60.810685 167.6 
L 61.271635 167.6 
L 61.732585 167.6 
L 62.193536 167.6 
L 62.654486 167.6 
L 63.115436 167.6 
L 63.576387 167.6 
L 64.037337 167.6 
L 64.498287 167.6 
L 64.959238 167.6 
L 65.420188 167.6 
L 65.881138 167.6 
L 66.342089 167.6 
L 66.803039 167.6 
L 67.263989 167.6 
L 67.72494 167.6 
L 68.18589 167.6 
L 68.64684 167.6 
L 69.107791 167.6 
L 69.568741 167.6 
L 70.029691 167.6 
L 70.490642 167.6 
L 70.951592 167.6 
L 71.412542 167.6 
L 71.873493 167.6 
L 72.334443 167.6 
L 72.795393 167.6 
L 73.256344 167.6 
L 73.717294 167.6 
L 74.178244 167.6 
L 74.639195 167.6 
L 75.100145 167.6 
L 75.561095 167.6 
L 76.022046 167.6 
L 76.482996 167.6 
L 76.943946 167.6 
L 77.404897 167.6 
L 77.865847 167.6 
L 78.326797 167.6 
L 78.787748 167.6 
L 79.248698 167.6 
L 79.709648 167.6 
L 80.170599 167.6 
L 80.373882 167.6 
L 80.170599 167.326954 
L 79.709648 166.710159 
L 79.248698 166.095745 
L 78.787748 165.483743 
L 78.326797 164.874187 
L 77.865847 164.26711 
L 77.404897 163.662544 
L 76.943946 163.060522 
L 76.482996 162.461077 
L 76.022046 161.864241 
L 75.561095 161.270046 
L 75.100145 160.678525 
L 74.639195 160.089709 
L 74.178244 159.503631 
L 73.717294 158.920322 
L 73.256344 158.339814 
L 72.795393 157.762139 
L 72.334443 157.187328 
L 71.873493 156.615412 
L 71.412542 156.046422 
L 70.951592 155.48039 
L 70.490642 154.917346 
L 70.029691 154.35732 
L 69.568741 153.800345 
L 69.107791 153.246449 
L 68.64684 152.695663 
L 68.18589 152.148018 
L 67.72494 151.603544 
L 67.263989 151.062269 
L 66.803039 150.524225 
L 66.342089 149.98944 
L 65.881138 149.457944 
L 65.420188 148.929767 
L 64.959238 148.404936 
L 64.498287 147.883482 
L 64.037337 147.365433 
L 63.576387 146.850818 
L 63.115436 146.339664 
L 62.654486 145.832001 
L 62.193536 145.327857 
L 61.732585 144.827259 
L 61.271635 144.330236 
L 60.810685 143.836814 
L 60.349734 143.347022 
L 59.888784 142.860887 
L 59.427834 142.378435 
L 58.966883 141.899695 
L 58.505933 141.424692 
L 58.044983 140.953453 
L 57.584032 140.486005 
L 57.123082 140.022374 
L 56.662132 139.562586 
L 56.201181 139.106667 
L 55.740231 138.654642 
L 55.279281 138.206538 
L 54.81833 137.762379 
L 54.35738 137.322191 
L 53.89643 136.885999 
L 53.435479 136.453828 
L 52.974529 136.025701 
L 52.513579 135.601644 
L 52.052628 135.181681 
L 51.591678 134.765836 
L 51.130728 134.354132 
L 50.669777 133.946594 
L 50.208827 133.543245 
L 49.747877 133.144107 
L 49.286926 132.749205 
L 48.825976 132.358561 
L 48.365026 131.972198 
L 47.904075 131.590138 
L 47.443125 131.212403 
L 46.982175 130.839016 
L 46.521224 130.469999 
L 46.060274 130.105372 
z
" clip-path="url(#pcaf03a384f)" style="fill: #9dc3dc; fill-opacity: 0.72; stroke: #9dc3dc; stroke-opacity: 0.72"/>
    <path d="M 322.4 167.6 
L 322.630475 167.6 
L 323.091426 167.6 
L 323.552376 167.6 
L 324.013326 167.6 
L 324.474277 167.6 
L 324.935227 167.6 
L 325.396177 167.6 
L 325.857128 167.6 
L 326.318078 167.6 
L 326.779028 167.6 
L 327.239979 167.6 
L 327.700929 167.6 
L 328.161879 167.6 
L 328.62283 167.6 
L 329.08378 167.6 
L 329.54473 167.6 
L 330.005681 167.6 
L 330.466631 167.6 
L 330.927581 167.6 
L 331.388532 167.6 
L 331.849482 167.6 
L 332.310432 167.6 
L 332.771383 167.6 
L 333.232333 167.6 
L 333.693283 167.6 
L 334.154234 167.6 
L 334.615184 167.6 
L 335.076134 167.6 
L 335.537085 167.6 
L 335.998035 167.6 
L 336.458985 167.6 
L 336.919936 167.6 
L 337.380886 167.6 
L 337.841836 167.6 
L 338.302787 167.6 
L 338.763737 167.6 
L 339.224687 167.6 
L 339.685638 167.6 
L 340.146588 167.6 
L 340.607538 167.6 
L 341.068489 167.6 
L 341.529439 167.6 
L 341.990389 167.6 
L 342.45134 167.6 
L 342.91229 167.6 
L 343.37324 167.6 
L 343.834191 167.6 
L 344.295141 167.6 
L 344.756091 167.6 
L 345.217042 167.6 
L 345.677992 167.6 
L 346.138942 167.6 
L 346.599893 167.6 
L 347.060843 167.6 
L 347.521793 167.6 
L 347.982744 167.6 
L 348.443694 167.6 
L 348.904644 167.6 
L 349.365595 167.6 
L 349.826545 167.6 
L 350.287495 167.6 
L 350.748446 167.6 
L 351.209396 167.6 
L 351.670346 167.6 
L 352.131297 167.6 
L 352.592247 167.6 
L 353.053197 167.6 
L 353.514148 167.6 
L 353.975098 167.6 
L 354.436048 167.6 
L 354.896999 167.6 
L 355.357949 167.6 
L 355.818899 167.6 
L 356.27985 167.6 
L 356.7408 167.6 
L 357.20175 167.6 
L 357.662701 167.6 
L 358.123651 167.6 
L 358.584601 167.6 
L 359.045552 167.6 
L 359.506502 167.6 
L 359.967452 167.6 
L 360.428403 167.6 
L 360.889353 167.6 
L 361.350303 167.6 
L 361.811254 167.6 
L 362.272204 167.6 
L 362.733154 167.6 
L 363.194105 167.6 
L 363.655055 167.6 
L 364.116005 167.6 
L 364.576956 167.6 
L 365.037906 167.6 
L 365.498856 167.6 
L 365.959807 167.6 
L 366.420757 167.6 
L 366.881707 167.6 
L 367.342658 167.6 
L 367.803608 167.6 
L 368.264558 167.6 
L 368.725509 167.6 
L 369.186459 167.6 
L 369.647409 167.6 
L 370.10836 167.6 
L 370.56931 167.6 
L 371.03026 167.6 
L 371.491211 167.6 
L 371.952161 167.6 
L 372.413111 167.6 
L 372.874062 167.6 
L 373.335012 167.6 
L 373.795962 167.6 
L 374.256913 167.6 
L 374.717863 167.6 
L 375.178813 167.6 
L 375.639764 167.6 
L 376.100714 167.6 
L 376.561664 167.6 
L 377.022615 167.6 
L 377.483565 167.6 
L 377.944515 167.6 
L 378.405466 167.6 
L 378.866416 167.6 
L 379.327366 167.6 
L 379.788317 167.6 
L 380.249267 167.6 
L 380.710217 167.6 
L 381.171168 167.6 
L 381.632118 167.6 
L 382.093068 167.6 
L 382.554019 167.6 
L 383.014969 167.6 
L 383.475919 167.6 
L 383.93687 167.6 
L 384.39782 167.6 
L 384.85877 167.6 
L 385.319721 167.6 
L 385.780671 167.6 
L 386.241621 167.6 
L 386.702572 167.6 
L 387.163522 167.6 
L 387.624472 167.6 
L 388.085423 167.6 
L 388.546373 167.6 
L 389.007323 167.6 
L 389.468274 167.6 
L 389.929224 167.6 
L 390.390174 167.6 
L 390.851125 167.6 
L 391.312075 167.6 
L 391.773025 167.6 
L 392.233976 167.6 
L 392.694926 167.6 
L 393.155876 167.6 
L 393.616827 167.6 
L 394.077777 167.6 
L 394.538727 167.6 
L 394.999678 167.6 
L 395.460628 167.6 
L 395.921578 167.6 
L 396.382529 167.6 
L 396.843479 167.6 
L 397.304429 167.6 
L 397.76538 167.6 
L 398.22633 167.6 
L 398.68728 167.6 
L 399.148231 167.6 
L 399.609181 167.6 
L 400.070132 167.6 
L 400.531082 167.6 
L 400.992032 167.6 
L 401.452983 167.6 
L 401.913933 167.6 
L 402.374883 167.6 
L 402.835834 167.6 
L 403.296784 167.6 
L 403.757734 167.6 
L 404.218685 167.6 
L 404.679635 167.6 
L 405.140585 167.6 
L 405.601536 167.6 
L 406.062486 167.6 
L 406.523436 167.6 
L 406.984387 167.6 
L 407.445337 167.6 
L 407.906287 167.6 
L 408.367238 167.6 
L 408.828188 167.6 
L 409.289138 167.6 
L 409.750089 167.6 
L 410.211039 167.6 
L 410.671989 167.6 
L 411.13294 167.6 
L 411.59389 167.6 
L 412.05484 167.6 
L 412.515791 167.6 
L 412.976741 167.6 
L 413.437691 167.6 
L 413.898642 167.6 
L 414.359592 167.6 
L 414.820542 167.6 
L 415.281493 167.6 
L 415.742443 167.6 
L 416.203393 167.6 
L 416.664344 167.6 
L 417.125294 167.6 
L 417.586244 167.6 
L 418.047195 167.6 
L 418.508145 167.6 
L 418.969095 167.6 
L 419.430046 167.6 
L 419.890996 167.6 
L 420.351946 167.6 
L 420.812897 167.6 
L 421.273847 167.6 
L 421.734797 167.6 
L 422.195748 167.6 
L 422.656698 167.6 
L 423.117648 167.6 
L 423.578599 167.6 
L 424.039549 167.6 
L 424.500499 167.6 
L 424.96145 167.6 
L 425.4224 167.6 
L 425.88335 167.6 
L 426.344301 167.6 
L 426.805251 167.6 
L 427.266201 167.6 
L 427.727152 167.6 
L 428.188102 167.6 
L 428.649052 167.6 
L 429.110003 167.6 
L 429.570953 167.6 
L 430.031903 167.6 
L 430.492854 167.6 
L 430.953804 167.6 
L 431.414754 167.6 
L 431.875705 167.6 
L 432.336655 167.6 
L 432.797605 167.6 
L 433.258556 167.6 
L 433.719506 167.6 
L 434.180456 167.6 
L 434.641407 167.6 
L 435.102357 167.6 
L 435.563307 167.6 
L 436.024258 167.6 
L 436.485208 167.6 
L 436.946158 167.6 
L 437.407109 167.6 
L 437.868059 167.6 
L 438.329009 167.6 
L 438.78996 167.6 
L 439.25091 167.6 
L 439.71186 167.6 
L 440.172811 167.6 
L 440.633761 167.6 
L 441.094711 167.6 
L 441.555662 167.6 
L 442.016612 167.6 
L 442.477562 167.6 
L 442.938513 167.6 
L 443.399463 167.6 
L 443.860413 167.6 
L 444.321364 167.6 
L 444.782314 167.6 
L 445.243264 167.6 
L 445.704215 167.6 
L 446.165165 167.6 
L 446.626115 167.6 
L 447.087066 167.6 
L 447.548016 167.6 
L 448.008966 167.6 
L 448.469917 167.6 
L 448.930867 167.6 
L 449.391817 167.6 
L 449.852768 167.6 
L 450.313718 167.6 
L 450.774668 167.6 
L 451.235619 167.6 
L 451.696569 167.6 
L 452.157519 167.6 
L 452.61847 167.6 
L 453.07942 167.6 
L 453.54037 167.6 
L 454.001321 167.6 
L 454.462271 167.6 
L 454.923221 167.6 
L 455.384172 167.6 
L 455.845122 167.6 
L 456.306072 167.6 
L 456.767023 167.6 
L 457.227973 167.6 
L 457.688923 167.6 
L 458.149874 167.6 
L 458.610824 167.6 
L 459.071774 167.6 
L 459.532725 167.6 
L 459.993675 167.6 
L 460.454625 167.6 
L 460.915576 167.6 
L 461.376526 167.6 
L 461.837476 167.6 
L 462.298427 167.6 
L 462.759377 167.6 
L 463.220327 167.6 
L 463.681278 167.6 
L 464.142228 167.6 
L 464.603178 167.6 
L 465.064129 167.6 
L 465.525079 167.6 
L 465.986029 167.6 
L 466.44698 167.6 
L 466.90793 167.6 
L 467.36888 167.6 
L 467.829831 167.6 
L 468.290781 167.6 
L 468.751731 167.6 
L 469.212682 167.6 
L 469.673632 167.6 
L 470.134582 167.6 
L 470.595533 167.6 
L 471.056483 167.6 
L 471.517433 167.6 
L 471.978384 167.6 
L 472.439334 167.6 
L 472.900284 167.6 
L 473.361235 167.6 
L 473.822185 167.6 
L 474.283135 167.6 
L 474.744086 167.6 
L 475.205036 167.6 
L 475.665986 167.6 
L 476.126937 167.6 
L 476.587887 167.6 
L 477.048838 167.6 
L 477.509788 167.6 
L 477.970738 167.6 
L 478.431689 167.6 
L 478.892639 167.6 
L 479.353589 167.6 
L 479.81454 167.6 
L 480.27549 167.6 
L 480.73644 167.6 
L 481.197391 167.6 
L 481.658341 167.6 
L 482.119291 167.6 
L 482.580242 167.6 
L 483.041192 167.6 
L 483.502142 167.6 
L 483.963093 167.6 
L 484.424043 167.6 
L 484.884993 167.6 
L 485.345944 167.6 
L 485.806894 167.6 
L 486.267844 167.6 
L 486.728795 167.6 
L 487.189745 167.6 
L 487.650695 167.6 
L 488.111646 167.6 
L 488.572596 167.6 
L 489.033546 167.6 
L 489.494497 167.6 
L 489.955447 167.6 
L 490.416397 167.6 
L 490.877348 167.6 
L 491.338298 167.6 
L 491.799248 167.6 
L 492.260199 167.6 
L 492.721149 167.6 
L 493.182099 167.6 
L 493.64305 167.6 
L 494.104 167.6 
L 494.56495 167.6 
L 495.025901 167.6 
L 495.486851 167.6 
L 495.947801 167.6 
L 496.408752 167.6 
L 496.869702 167.6 
L 497.330652 167.6 
L 497.791603 167.6 
L 498.252553 167.6 
L 498.713503 167.6 
L 499.174454 167.6 
L 499.635404 167.6 
L 500.096354 167.6 
L 500.557305 167.6 
L 501.018255 167.6 
L 501.479205 167.6 
L 501.940156 167.6 
L 502.401106 167.6 
L 502.862056 167.6 
L 503.323007 167.6 
L 503.783957 167.6 
L 504.244907 167.6 
L 504.705858 167.6 
L 505.166808 167.6 
L 505.627758 167.6 
L 506.088709 167.6 
L 506.549659 167.6 
L 507.010609 167.6 
L 507.47156 167.6 
L 507.93251 167.6 
L 508.39346 167.6 
L 508.854411 167.6 
L 509.315361 167.6 
L 509.776311 167.6 
L 510.237262 167.6 
L 510.698212 167.6 
L 511.159162 167.6 
L 511.620113 167.6 
L 512.081063 167.6 
L 512.542013 167.6 
L 513.002964 167.6 
L 513.463914 167.6 
L 513.924864 167.6 
L 514.385815 167.6 
L 514.846765 167.6 
L 515.307715 167.6 
L 515.768666 167.6 
L 516.229616 167.6 
L 516.690566 167.6 
L 517.151517 167.6 
L 517.612467 167.6 
L 518.073417 167.6 
L 518.534368 167.6 
L 518.995318 167.6 
L 519.456268 167.6 
L 519.917219 167.6 
L 520.378169 167.6 
L 520.839119 167.6 
L 521.30007 167.6 
L 521.76102 167.6 
L 522.22197 167.6 
L 522.682921 167.6 
L 523.143871 167.6 
L 523.604821 167.6 
L 524.065772 167.6 
L 524.526722 167.6 
L 524.987672 167.6 
L 525.448623 167.6 
L 525.909573 167.6 
L 526.370523 167.6 
L 526.831474 167.6 
L 527.292424 167.6 
L 527.753374 167.6 
L 528.214325 167.6 
L 528.675275 167.6 
L 529.136225 167.6 
L 529.597176 167.6 
L 530.058126 167.6 
L 530.519076 167.6 
L 530.980027 167.6 
L 531.440977 167.6 
L 531.901927 167.6 
L 532.362878 167.6 
L 532.823828 167.6 
L 533.284778 167.6 
L 533.745729 167.6 
L 534.206679 167.6 
L 534.667629 167.6 
L 535.12858 167.6 
L 535.58953 167.6 
L 536.05048 167.6 
L 536.511431 167.6 
L 536.972381 167.6 
L 537.433331 167.6 
L 537.894282 167.6 
L 538.355232 167.6 
L 538.816182 167.6 
L 539.277133 167.6 
L 539.738083 167.6 
L 540.199033 167.6 
L 540.659984 167.6 
L 541.120934 167.6 
L 541.581884 167.6 
L 542.042835 167.6 
L 542.503785 167.6 
L 542.964735 167.6 
L 543.425686 167.6 
L 543.886636 167.6 
L 544.347586 167.6 
L 544.808537 167.6 
L 545.269487 167.6 
L 545.730437 167.6 
L 546.191388 167.6 
L 546.652338 167.6 
L 547.113288 167.6 
L 547.574239 167.6 
L 548.035189 167.6 
L 548.496139 167.6 
L 548.95709 167.6 
L 549.41804 167.6 
L 549.87899 167.6 
L 550.339941 167.6 
L 550.800891 167.6 
L 551.261841 167.6 
L 551.722792 167.6 
L 552.183742 167.6 
L 552.644692 167.6 
L 553.105643 167.6 
L 553.566593 167.6 
L 554.027544 167.6 
L 554.488494 167.6 
L 554.949444 167.6 
L 555.410395 167.6 
L 555.871345 167.6 
L 556.332295 167.6 
L 556.793246 167.6 
L 557.254196 167.6 
L 557.715146 167.6 
L 558.176097 167.6 
L 558.637047 167.6 
L 559.097997 167.6 
L 559.558948 167.6 
L 560.019898 167.6 
L 560.480848 167.6 
L 560.941799 167.6 
L 561.402749 167.6 
L 561.863699 167.6 
L 562.32465 167.6 
L 562.7856 167.6 
L 563.24655 167.6 
L 563.707501 167.6 
L 564.168451 167.6 
L 564.426118 167.6 
L 564.168451 167.253906 
L 563.707501 166.632452 
L 563.24655 166.008719 
L 562.7856 165.38274 
L 562.32465 164.754548 
L 561.863699 164.124178 
L 561.402749 163.491663 
L 560.941799 162.857037 
L 560.480848 162.220335 
L 560.019898 161.58159 
L 559.558948 160.940837 
L 559.097997 160.298109 
L 558.637047 159.653443 
L 558.176097 159.006871 
L 557.715146 158.358429 
L 557.254196 157.708151 
L 556.793246 157.056073 
L 556.332295 156.402228 
L 555.871345 155.746653 
L 555.410395 155.089381 
L 554.949444 154.430449 
L 554.488494 153.769891 
L 554.027544 153.107743 
L 553.566593 152.44404 
L 553.105643 151.778817 
L 552.644692 151.11211 
L 552.183742 150.443955 
L 551.722792 149.774386 
L 551.261841 149.103441 
L 550.800891 148.431154 
L 550.339941 147.757562 
L 549.87899 147.0827 
L 549.41804 146.406604 
L 548.95709 145.72931 
L 548.496139 145.050854 
L 548.035189 144.371273 
L 547.574239 143.690603 
L 547.113288 143.008879 
L 546.652338 142.326138 
L 546.191388 141.642417 
L 545.730437 140.957752 
L 545.269487 140.272178 
L 544.808537 139.585733 
L 544.347586 138.898453 
L 543.886636 138.210375 
L 543.425686 137.521535 
L 542.964735 136.831969 
L 542.503785 136.141715 
L 542.042835 135.450809 
L 541.581884 134.759288 
L 541.120934 134.067188 
L 540.659984 133.374546 
L 540.199033 132.681399 
L 539.738083 131.987784 
L 539.277133 131.293737 
L 538.816182 130.599296 
L 538.355232 129.904497 
L 537.894282 129.209378 
L 537.433331 128.513974 
L 536.972381 127.818323 
L 536.511431 127.122462 
L 536.05048 126.426428 
L 535.58953 125.730258 
L 535.12858 125.033988 
L 534.667629 124.337656 
L 534.206679 123.641298 
L 533.745729 122.944952 
L 533.284778 122.248654 
L 532.823828 121.552442 
L 532.362878 120.856352 
L 531.901927 120.160421 
L 531.440977 119.464686 
L 530.980027 118.769185 
L 530.519076 118.073953 
L 530.058126 117.379029 
L 529.597176 116.684448 
L 529.136225 115.990248 
L 528.675275 115.296465 
L 528.214325 114.603136 
L 527.753374 113.910299 
L 527.292424 113.21799 
L 526.831474 112.526245 
L 526.370523 111.835102 
L 525.909573 111.144596 
L 525.448623 110.454766 
L 524.987672 109.765647 
L 524.526722 109.077276 
L 524.065772 108.389689 
L 523.604821 107.702924 
L 523.143871 107.017017 
L 522.682921 106.332003 
L 522.22197 105.64792 
L 521.76102 104.964804 
L 521.30007 104.282691 
L 520.839119 103.601618 
L 520.378169 102.92162 
L 519.917219 102.242734 
L 519.456268 101.564996 
L 518.995318 100.888443 
L 518.534368 100.213109 
L 518.073417 99.539032 
L 517.612467 98.866247 
L 517.151517 98.194789 
L 516.690566 97.524696 
L 516.229616 96.856001 
L 515.768666 96.188742 
L 515.307715 95.522953 
L 514.846765 94.858671 
L 514.385815 94.19593 
L 513.924864 93.534766 
L 513.463914 92.875214 
L 513.002964 92.21731 
L 512.542013 91.561088 
L 512.081063 90.906585 
L 511.620113 90.253833 
L 511.159162 89.60287 
L 510.698212 88.953729 
L 510.237262 88.306445 
L 509.776311 87.661053 
L 509.315361 87.017588 
L 508.854411 86.376083 
L 508.39346 85.736574 
L 507.93251 85.099095 
L 507.47156 84.463679 
L 507.010609 83.830361 
L 506.549659 83.199175 
L 506.088709 82.570155 
L 505.627758 81.943334 
L 505.166808 81.318747 
L 504.705858 80.696426 
L 504.244907 80.076406 
L 503.783957 79.45872 
L 503.323007 78.843401 
L 502.862056 78.230482 
L 502.401106 77.619996 
L 501.940156 77.011977 
L 501.479205 76.406456 
L 501.018255 75.803468 
L 500.557305 75.203043 
L 500.096354 74.605216 
L 499.635404 74.010018 
L 499.174454 73.417481 
L 498.713503 72.827637 
L 498.252553 72.240519 
L 497.791603 71.656158 
L 497.330652 71.074587 
L 496.869702 70.495836 
L 496.408752 69.919937 
L 495.947801 69.346921 
L 495.486851 68.77682 
L 495.025901 68.209664 
L 494.56495 67.645486 
L 494.104 67.084314 
L 493.64305 66.52618 
L 493.182099 65.971115 
L 492.721149 65.419149 
L 492.260199 64.870312 
L 491.799248 64.324633 
L 491.338298 63.782144 
L 490.877348 63.242874 
L 490.416397 62.706852 
L 489.955447 62.174108 
L 489.494497 61.64467 
L 489.033546 61.11857 
L 488.572596 60.595834 
L 488.111646 60.076493 
L 487.650695 59.560574 
L 487.189745 59.048107 
L 486.728795 58.53912 
L 486.267844 58.03364 
L 485.806894 57.531697 
L 485.345944 57.033317 
L 484.884993 56.538529 
L 484.424043 56.04736 
L 483.963093 55.559837 
L 483.502142 55.075988 
L 483.041192 54.595839 
L 482.580242 54.119418 
L 482.119291 53.646752 
L 481.658341 53.177866 
L 481.197391 52.712787 
L 480.73644 52.251541 
L 480.27549 51.794155 
L 479.81454 51.340653 
L 479.353589 50.891062 
L 478.892639 50.445407 
L 478.431689 50.003713 
L 477.970738 49.566005 
L 477.509788 49.132309 
L 477.048838 48.702648 
L 476.587887 48.277048 
L 476.126937 47.855533 
L 475.665986 47.438126 
L 475.205036 47.024852 
L 474.744086 46.615734 
L 474.283135 46.210797 
L 473.822185 45.810062 
L 473.361235 45.413554 
L 472.900284 45.021296 
L 472.439334 44.63331 
L 471.978384 44.249618 
L 471.517433 43.870244 
L 471.056483 43.495208 
L 470.595533 43.124534 
L 470.134582 42.758243 
L 469.673632 42.396356 
L 469.212682 42.038895 
L 468.751731 41.685881 
L 468.290781 41.337335 
L 467.829831 40.993277 
L 467.36888 40.653729 
L 466.90793 40.31871 
L 466.44698 39.98824 
L 465.986029 39.662339 
L 465.525079 39.341028 
L 465.064129 39.024324 
L 464.603178 38.712249 
L 464.142228 38.40482 
L 463.681278 38.102056 
L 463.220327 37.803976 
L 462.759377 37.510599 
L 462.298427 37.221942 
L 461.837476 36.938024 
L 461.376526 36.658861 
L 460.915576 36.384473 
L 460.454625 36.114875 
L 459.993675 35.850084 
L 459.532725 35.590119 
L 459.071774 35.334995 
L 458.610824 35.084728 
L 458.149874 34.839335 
L 457.688923 34.598831 
L 457.227973 34.363233 
L 456.767023 34.132555 
L 456.306072 33.906814 
L 455.845122 33.686023 
L 455.384172 33.470198 
L 454.923221 33.259352 
L 454.462271 33.053502 
L 454.001321 32.85266 
L 453.54037 32.65684 
L 453.07942 32.466056 
L 452.61847 32.280321 
L 452.157519 32.099648 
L 451.696569 31.924051 
L 451.235619 31.753542 
L 450.774668 31.588132 
L 450.313718 31.427835 
L 449.852768 31.272663 
L 449.391817 31.122626 
L 448.930867 30.977737 
L 448.469917 30.838007 
L 448.008966 30.703446 
L 447.548016 30.574066 
L 447.087066 30.449876 
L 446.626115 30.330888 
L 446.165165 30.21711 
L 445.704215 30.108553 
L 445.243264 30.005227 
L 444.782314 29.90714 
L 444.321364 29.814302 
L 443.860413 29.726721 
L 443.399463 29.644406 
L 442.938513 29.567365 
L 442.477562 29.495607 
L 442.016612 29.429138 
L 441.555662 29.367968 
L 441.094711 29.312101 
L 440.633761 29.261547 
L 440.172811 29.216312 
L 439.71186 29.176402 
L 439.25091 29.141823 
L 438.78996 29.112582 
L 438.329009 29.088684 
L 437.868059 29.070136 
L 437.407109 29.056941 
L 436.946158 29.049106 
L 436.485208 29.046635 
L 436.024258 29.049533 
L 435.563307 29.057804 
L 435.102357 29.071452 
L 434.641407 29.090481 
L 434.180456 29.114894 
L 433.719506 29.144695 
L 433.258556 29.179887 
L 432.797605 29.220472 
L 432.336655 29.266453 
L 431.875705 29.317833 
L 431.414754 29.374613 
L 430.953804 29.436796 
L 430.492854 29.504382 
L 430.031903 29.577373 
L 429.570953 29.655771 
L 429.110003 29.739575 
L 428.649052 29.828787 
L 428.188102 29.923406 
L 427.727152 30.023433 
L 427.266201 30.128868 
L 426.805251 30.239709 
L 426.344301 30.355957 
L 425.88335 30.47761 
L 425.4224 30.604667 
L 424.96145 30.737127 
L 424.500499 30.874988 
L 424.039549 31.018247 
L 423.578599 31.166903 
L 423.117648 31.320953 
L 422.656698 31.480394 
L 422.195748 31.645224 
L 421.734797 31.815439 
L 421.273847 31.991035 
L 420.812897 32.172009 
L 420.351946 32.358357 
L 419.890996 32.550074 
L 419.430046 32.747157 
L 418.969095 32.949599 
L 418.508145 33.157397 
L 418.047195 33.370545 
L 417.586244 33.589038 
L 417.125294 33.812869 
L 416.664344 34.042033 
L 416.203393 34.276523 
L 415.742443 34.516334 
L 415.281493 34.761457 
L 414.820542 35.011887 
L 414.359592 35.267616 
L 413.898642 35.528636 
L 413.437691 35.79494 
L 412.976741 36.066519 
L 412.515791 36.343366 
L 412.05484 36.625472 
L 411.59389 36.912829 
L 411.13294 37.205427 
L 410.671989 37.503256 
L 410.211039 37.806309 
L 409.750089 38.114574 
L 409.289138 38.428042 
L 408.828188 38.746703 
L 408.367238 39.070547 
L 407.906287 39.399562 
L 407.445337 39.733738 
L 406.984387 40.073063 
L 406.523436 40.417527 
L 406.062486 40.767117 
L 405.601536 41.121822 
L 405.140585 41.481629 
L 404.679635 41.846527 
L 404.218685 42.216502 
L 403.757734 42.591542 
L 403.296784 42.971634 
L 402.835834 43.356764 
L 402.374883 43.746919 
L 401.913933 44.142085 
L 401.452983 44.542248 
L 400.992032 44.947394 
L 400.531082 45.357509 
L 400.070132 45.772577 
L 399.609181 46.192584 
L 399.148231 46.617514 
L 398.68728 47.047353 
L 398.22633 47.482084 
L 397.76538 47.921692 
L 397.304429 48.36616 
L 396.843479 48.815473 
L 396.382529 49.269614 
L 395.921578 49.728565 
L 395.460628 50.192311 
L 394.999678 50.660834 
L 394.538727 51.134116 
L 394.077777 51.612139 
L 393.616827 52.094887 
L 393.155876 52.58234 
L 392.694926 53.074481 
L 392.233976 53.571291 
L 391.773025 54.072751 
L 391.312075 54.578842 
L 390.851125 55.089545 
L 390.390174 55.604841 
L 389.929224 56.12471 
L 389.468274 56.649132 
L 389.007323 57.178087 
L 388.546373 57.711555 
L 388.085423 58.249515 
L 387.624472 58.791948 
L 387.163522 59.338831 
L 386.702572 59.890144 
L 386.241621 60.445865 
L 385.780671 61.005974 
L 385.319721 61.570448 
L 384.85877 62.139265 
L 384.39782 62.712403 
L 383.93687 63.289841 
L 383.475919 63.871555 
L 383.014969 64.457522 
L 382.554019 65.047721 
L 382.093068 65.642127 
L 381.632118 66.240718 
L 381.171168 66.843469 
L 380.710217 67.450358 
L 380.249267 68.06136 
L 379.788317 68.676451 
L 379.327366 69.295607 
L 378.866416 69.918804 
L 378.405466 70.546017 
L 377.944515 71.17722 
L 377.483565 71.81239 
L 377.022615 72.4515 
L 376.561664 73.094526 
L 376.100714 73.741441 
L 375.639764 74.392221 
L 375.178813 75.046839 
L 374.717863 75.705269 
L 374.256913 76.367484 
L 373.795962 77.033459 
L 373.335012 77.703166 
L 372.874062 78.376579 
L 372.413111 79.053671 
L 371.952161 79.734414 
L 371.491211 80.418782 
L 371.03026 81.106746 
L 370.56931 81.798279 
L 370.10836 82.493354 
L 369.647409 83.191942 
L 369.186459 83.894015 
L 368.725509 84.599545 
L 368.264558 85.308503 
L 367.803608 86.02086 
L 367.342658 86.736589 
L 366.881707 87.455659 
L 366.420757 88.178042 
L 365.959807 88.903708 
L 365.498856 89.632628 
L 365.037906 90.364773 
L 364.576956 91.100112 
L 364.116005 91.838616 
L 363.655055 92.580255 
L 363.194105 93.324998 
L 362.733154 94.072815 
L 362.272204 94.823676 
L 361.811254 95.577551 
L 361.350303 96.334407 
L 360.889353 97.094216 
L 360.428403 97.856944 
L 359.967452 98.622562 
L 359.506502 99.391038 
L 359.045552 100.162341 
L 358.584601 100.936438 
L 358.123651 101.713299 
L 357.662701 102.492892 
L 357.20175 103.275184 
L 356.7408 104.060143 
L 356.27985 104.847738 
L 355.818899 105.637935 
L 355.357949 106.430703 
L 354.896999 107.226009 
L 354.436048 108.023821 
L 353.975098 108.824104 
L 353.514148 109.626828 
L 353.053197 110.431957 
L 352.592247 111.23946 
L 352.131297 112.049303 
L 351.670346 112.861453 
L 351.209396 113.675876 
L 350.748446 114.492539 
L 350.287495 115.311408 
L 349.826545 116.132449 
L 349.365595 116.955628 
L 348.904644 117.780912 
L 348.443694 118.608266 
L 347.982744 119.437656 
L 347.521793 120.269048 
L 347.060843 121.102407 
L 346.599893 121.937699 
L 346.138942 122.77489 
L 345.677992 123.613944 
L 345.217042 124.454827 
L 344.756091 125.297505 
L 344.295141 126.141942 
L 343.834191 126.988103 
L 343.37324 127.835954 
L 342.91229 128.685459 
L 342.45134 129.536583 
L 341.990389 130.38929 
L 341.529439 131.243546 
L 341.068489 132.099315 
L 340.607538 132.956561 
L 340.146588 133.815248 
L 339.685638 134.675342 
L 339.224687 135.536807 
L 338.763737 136.399606 
L 338.302787 137.263703 
L 337.841836 138.129064 
L 337.380886 138.995652 
L 336.919936 139.86343 
L 336.458985 140.732364 
L 335.998035 141.602416 
L 335.537085 142.473551 
L 335.076134 143.345732 
L 334.615184 144.218924 
L 334.154234 145.093089 
L 333.693283 145.968191 
L 333.232333 146.844195 
L 332.771383 147.721063 
L 332.310432 148.598759 
L 331.849482 149.477246 
L 331.388532 150.356489 
L 330.927581 151.23645 
L 330.466631 152.117092 
L 330.005681 152.99838 
L 329.54473 153.880276 
L 329.08378 154.762743 
L 328.62283 155.645746 
L 328.161879 156.529246 
L 327.700929 157.413208 
L 327.239979 158.297595 
L 326.779028 159.182369 
L 326.318078 160.067493 
L 325.857128 160.952932 
L 325.396177 161.838647 
L 324.935227 162.724603 
L 324.474277 163.610762 
L 324.013326 164.497087 
L 323.552376 165.383541 
L 323.091426 166.270088 
L 322.630475 167.15669 
z
" clip-path="url(#pcaf03a384f)" style="fill: #9dc3dc; fill-opacity: 0.72; stroke: #9dc3dc; stroke-opacity: 0.72"/>
   </g>
   <g id="FillBetweenPolyCollection_2">
    <path d="M 80.373882 167.6 
L 80.631549 167.6 
L 81.092499 167.6 
L 81.55345 167.6 
L 82.0144 167.6 
L 82.47535 167.6 
L 82.936301 167.6 
L 83.397251 167.6 
L 83.858201 167.6 
L 84.319152 167.6 
L 84.780102 167.6 
L 85.241052 167.6 
L 85.702003 167.6 
L 86.162953 167.6 
L 86.623903 167.6 
L 87.084854 167.6 
L 87.545804 167.6 
L 88.006754 167.6 
L 88.467705 167.6 
L 88.928655 167.6 
L 89.389605 167.6 
L 89.850556 167.6 
L 90.311506 167.6 
L 90.772456 167.6 
L 91.233407 167.6 
L 91.694357 167.6 
L 92.155308 167.6 
L 92.616258 167.6 
L 93.077208 167.6 
L 93.538159 167.6 
L 93.999109 167.6 
L 94.460059 167.6 
L 94.92101 167.6 
L 95.38196 167.6 
L 95.84291 167.6 
L 96.303861 167.6 
L 96.764811 167.6 
L 97.225761 167.6 
L 97.686712 167.6 
L 98.147662 167.6 
L 98.608612 167.6 
L 99.069563 167.6 
L 99.530513 167.6 
L 99.991463 167.6 
L 100.452414 167.6 
L 100.913364 167.6 
L 101.374314 167.6 
L 101.835265 167.6 
L 102.296215 167.6 
L 102.757165 167.6 
L 103.218116 167.6 
L 103.679066 167.6 
L 104.140016 167.6 
L 104.600967 167.6 
L 105.061917 167.6 
L 105.522867 167.6 
L 105.983818 167.6 
L 106.444768 167.6 
L 106.905718 167.6 
L 107.366669 167.6 
L 107.827619 167.6 
L 108.288569 167.6 
L 108.74952 167.6 
L 109.21047 167.6 
L 109.67142 167.6 
L 110.132371 167.6 
L 110.593321 167.6 
L 111.054271 167.6 
L 111.515222 167.6 
L 111.976172 167.6 
L 112.437122 167.6 
L 112.898073 167.6 
L 113.359023 167.6 
L 113.819973 167.6 
L 114.280924 167.6 
L 114.741874 167.6 
L 115.202824 167.6 
L 115.663775 167.6 
L 116.124725 167.6 
L 116.585675 167.6 
L 117.046626 167.6 
L 117.507576 167.6 
L 117.968526 167.6 
L 118.429477 167.6 
L 118.890427 167.6 
L 119.351377 167.6 
L 119.812328 167.6 
L 120.273278 167.6 
L 120.734228 167.6 
L 121.195179 167.6 
L 121.656129 167.6 
L 122.117079 167.6 
L 122.57803 167.6 
L 123.03898 167.6 
L 123.49993 167.6 
L 123.960881 167.6 
L 124.421831 167.6 
L 124.882781 167.6 
L 125.343732 167.6 
L 125.804682 167.6 
L 126.265632 167.6 
L 126.726583 167.6 
L 127.187533 167.6 
L 127.648483 167.6 
L 128.109434 167.6 
L 128.570384 167.6 
L 129.031334 167.6 
L 129.492285 167.6 
L 129.953235 167.6 
L 130.414185 167.6 
L 130.875136 167.6 
L 131.336086 167.6 
L 131.797036 167.6 
L 132.257987 167.6 
L 132.718937 167.6 
L 133.179887 167.6 
L 133.640838 167.6 
L 134.101788 167.6 
L 134.562738 167.6 
L 135.023689 167.6 
L 135.484639 167.6 
L 135.945589 167.6 
L 136.40654 167.6 
L 136.86749 167.6 
L 137.32844 167.6 
L 137.789391 167.6 
L 138.250341 167.6 
L 138.711291 167.6 
L 139.172242 167.6 
L 139.633192 167.6 
L 140.094142 167.6 
L 140.555093 167.6 
L 141.016043 167.6 
L 141.476993 167.6 
L 141.937944 167.6 
L 142.398894 167.6 
L 142.859844 167.6 
L 143.320795 167.6 
L 143.781745 167.6 
L 144.242695 167.6 
L 144.703646 167.6 
L 145.164596 167.6 
L 145.625546 167.6 
L 146.086497 167.6 
L 146.547447 167.6 
L 147.008397 167.6 
L 147.469348 167.6 
L 147.930298 167.6 
L 148.391248 167.6 
L 148.852199 167.6 
L 149.313149 167.6 
L 149.774099 167.6 
L 150.23505 167.6 
L 150.696 167.6 
L 151.15695 167.6 
L 151.617901 167.6 
L 152.078851 167.6 
L 152.539801 167.6 
L 153.000752 167.6 
L 153.461702 167.6 
L 153.922652 167.6 
L 154.383603 167.6 
L 154.844553 167.6 
L 155.305503 167.6 
L 155.766454 167.6 
L 156.227404 167.6 
L 156.688354 167.6 
L 157.149305 167.6 
L 157.610255 167.6 
L 158.071205 167.6 
L 158.532156 167.6 
L 158.993106 167.6 
L 159.454056 167.6 
L 159.915007 167.6 
L 160.375957 167.6 
L 160.836907 167.6 
L 161.297858 167.6 
L 161.758808 167.6 
L 162.219758 167.6 
L 162.680709 167.6 
L 163.141659 167.6 
L 163.602609 167.6 
L 164.06356 167.6 
L 164.52451 167.6 
L 164.98546 167.6 
L 165.446411 167.6 
L 165.907361 167.6 
L 166.368311 167.6 
L 166.829262 167.6 
L 167.290212 167.6 
L 167.751162 167.6 
L 168.212113 167.6 
L 168.673063 167.6 
L 169.134014 167.6 
L 169.594964 167.6 
L 170.055914 167.6 
L 170.516865 167.6 
L 170.977815 167.6 
L 171.438765 167.6 
L 171.899716 167.6 
L 172.360666 167.6 
L 172.821616 167.6 
L 173.282567 167.6 
L 173.743517 167.6 
L 174.204467 167.6 
L 174.665418 167.6 
L 175.126368 167.6 
L 175.587318 167.6 
L 176.048269 167.6 
L 176.509219 167.6 
L 176.970169 167.6 
L 177.43112 167.6 
L 177.89207 167.6 
L 178.35302 167.6 
L 178.813971 167.6 
L 179.274921 167.6 
L 179.735871 167.6 
L 180.196822 167.6 
L 180.657772 167.6 
L 181.118722 167.6 
L 181.579673 167.6 
L 182.040623 167.6 
L 182.501573 167.6 
L 182.962524 167.6 
L 183.423474 167.6 
L 183.884424 167.6 
L 184.345375 167.6 
L 184.806325 167.6 
L 185.267275 167.6 
L 185.728226 167.6 
L 186.189176 167.6 
L 186.650126 167.6 
L 187.111077 167.6 
L 187.572027 167.6 
L 188.032977 167.6 
L 188.493928 167.6 
L 188.954878 167.6 
L 189.415828 167.6 
L 189.876779 167.6 
L 190.337729 167.6 
L 190.798679 167.6 
L 191.25963 167.6 
L 191.72058 167.6 
L 192.18153 167.6 
L 192.642481 167.6 
L 193.103431 167.6 
L 193.564381 167.6 
L 194.025332 167.6 
L 194.486282 167.6 
L 194.947232 167.6 
L 195.408183 167.6 
L 195.869133 167.6 
L 196.330083 167.6 
L 196.791034 167.6 
L 197.251984 167.6 
L 197.712934 167.6 
L 198.173885 167.6 
L 198.634835 167.6 
L 199.095785 167.6 
L 199.556736 167.6 
L 200.017686 167.6 
L 200.478636 167.6 
L 200.939587 167.6 
L 201.400537 167.6 
L 201.861487 167.6 
L 202.322438 167.6 
L 202.783388 167.6 
L 203.244338 167.6 
L 203.705289 167.6 
L 204.166239 167.6 
L 204.627189 167.6 
L 205.08814 167.6 
L 205.54909 167.6 
L 206.01004 167.6 
L 206.470991 167.6 
L 206.931941 167.6 
L 207.392891 167.6 
L 207.853842 167.6 
L 208.314792 167.6 
L 208.775742 167.6 
L 209.236693 167.6 
L 209.697643 167.6 
L 210.158593 167.6 
L 210.619544 167.6 
L 211.080494 167.6 
L 211.541444 167.6 
L 212.002395 167.6 
L 212.463345 167.6 
L 212.924295 167.6 
L 213.385246 167.6 
L 213.846196 167.6 
L 214.307146 167.6 
L 214.768097 167.6 
L 215.229047 167.6 
L 215.689997 167.6 
L 216.150948 167.6 
L 216.611898 167.6 
L 217.072848 167.6 
L 217.533799 167.6 
L 217.994749 167.6 
L 218.455699 167.6 
L 218.91665 167.6 
L 219.3776 167.6 
L 219.83855 167.6 
L 220.299501 167.6 
L 220.760451 167.6 
L 221.221401 167.6 
L 221.682352 167.6 
L 222.143302 167.6 
L 222.604252 167.6 
L 223.065203 167.6 
L 223.526153 167.6 
L 223.987103 167.6 
L 224.448054 167.6 
L 224.909004 167.6 
L 225.369954 167.6 
L 225.830905 167.6 
L 226.291855 167.6 
L 226.752805 167.6 
L 227.213756 167.6 
L 227.674706 167.6 
L 228.135656 167.6 
L 228.596607 167.6 
L 229.057557 167.6 
L 229.518507 167.6 
L 229.979458 167.6 
L 230.440408 167.6 
L 230.901358 167.6 
L 231.362309 167.6 
L 231.823259 167.6 
L 232.284209 167.6 
L 232.74516 167.6 
L 233.20611 167.6 
L 233.66706 167.6 
L 234.128011 167.6 
L 234.588961 167.6 
L 235.049911 167.6 
L 235.510862 167.6 
L 235.971812 167.6 
L 236.432762 167.6 
L 236.893713 167.6 
L 237.354663 167.6 
L 237.815613 167.6 
L 238.276564 167.6 
L 238.737514 167.6 
L 239.198464 167.6 
L 239.659415 167.6 
L 240.120365 167.6 
L 240.581315 167.6 
L 241.042266 167.6 
L 241.503216 167.6 
L 241.964166 167.6 
L 242.425117 167.6 
L 242.886067 167.6 
L 243.347017 167.6 
L 243.807968 167.6 
L 244.268918 167.6 
L 244.729868 167.6 
L 245.190819 167.6 
L 245.651769 167.6 
L 246.11272 167.6 
L 246.57367 167.6 
L 247.03462 167.6 
L 247.495571 167.6 
L 247.956521 167.6 
L 248.417471 167.6 
L 248.878422 167.6 
L 249.339372 167.6 
L 249.800322 167.6 
L 250.261273 167.6 
L 250.722223 167.6 
L 251.183173 167.6 
L 251.644124 167.6 
L 252.105074 167.6 
L 252.566024 167.6 
L 253.026975 167.6 
L 253.487925 167.6 
L 253.948875 167.6 
L 254.409826 167.6 
L 254.870776 167.6 
L 255.331726 167.6 
L 255.792677 167.6 
L 256.253627 167.6 
L 256.714577 167.6 
L 257.175528 167.6 
L 257.636478 167.6 
L 258.097428 167.6 
L 258.558379 167.6 
L 259.019329 167.6 
L 259.480279 167.6 
L 259.94123 167.6 
L 260.40218 167.6 
L 260.86313 167.6 
L 261.324081 167.6 
L 261.785031 167.6 
L 262.245981 167.6 
L 262.706932 167.6 
L 263.167882 167.6 
L 263.628832 167.6 
L 264.089783 167.6 
L 264.550733 167.6 
L 265.011683 167.6 
L 265.472634 167.6 
L 265.933584 167.6 
L 266.394534 167.6 
L 266.855485 167.6 
L 267.316435 167.6 
L 267.777385 167.6 
L 268.238336 167.6 
L 268.699286 167.6 
L 269.160236 167.6 
L 269.621187 167.6 
L 270.082137 167.6 
L 270.543087 167.6 
L 271.004038 167.6 
L 271.464988 167.6 
L 271.925938 167.6 
L 272.386889 167.6 
L 272.847839 167.6 
L 273.308789 167.6 
L 273.76974 167.6 
L 274.23069 167.6 
L 274.69164 167.6 
L 275.152591 167.6 
L 275.613541 167.6 
L 276.074491 167.6 
L 276.535442 167.6 
L 276.996392 167.6 
L 277.457342 167.6 
L 277.918293 167.6 
L 278.379243 167.6 
L 278.840193 167.6 
L 279.301144 167.6 
L 279.762094 167.6 
L 280.223044 167.6 
L 280.683995 167.6 
L 281.144945 167.6 
L 281.605895 167.6 
L 282.066846 167.6 
L 282.527796 167.6 
L 282.988746 167.6 
L 283.449697 167.6 
L 283.910647 167.6 
L 284.371597 167.6 
L 284.832548 167.6 
L 285.293498 167.6 
L 285.754448 167.6 
L 286.215399 167.6 
L 286.676349 167.6 
L 287.137299 167.6 
L 287.59825 167.6 
L 288.0592 167.6 
L 288.52015 167.6 
L 288.981101 167.6 
L 289.442051 167.6 
L 289.903001 167.6 
L 290.363952 167.6 
L 290.824902 167.6 
L 291.285852 167.6 
L 291.746803 167.6 
L 292.207753 167.6 
L 292.668703 167.6 
L 293.129654 167.6 
L 293.590604 167.6 
L 294.051554 167.6 
L 294.512505 167.6 
L 294.973455 167.6 
L 295.434405 167.6 
L 295.895356 167.6 
L 296.356306 167.6 
L 296.817256 167.6 
L 297.278207 167.6 
L 297.739157 167.6 
L 298.200107 167.6 
L 298.661058 167.6 
L 299.122008 167.6 
L 299.582958 167.6 
L 300.043909 167.6 
L 300.504859 167.6 
L 300.965809 167.6 
L 301.42676 167.6 
L 301.88771 167.6 
L 302.34866 167.6 
L 302.809611 167.6 
L 303.270561 167.6 
L 303.731511 167.6 
L 304.192462 167.6 
L 304.653412 167.6 
L 305.114362 167.6 
L 305.575313 167.6 
L 306.036263 167.6 
L 306.497213 167.6 
L 306.958164 167.6 
L 307.419114 167.6 
L 307.880064 167.6 
L 308.341015 167.6 
L 308.801965 167.6 
L 309.262915 167.6 
L 309.723866 167.6 
L 310.184816 167.6 
L 310.645766 167.6 
L 311.106717 167.6 
L 311.567667 167.6 
L 312.028617 167.6 
L 312.489568 167.6 
L 312.950518 167.6 
L 313.411468 167.6 
L 313.872419 167.6 
L 314.333369 167.6 
L 314.794319 167.6 
L 315.25527 167.6 
L 315.71622 167.6 
L 316.17717 167.6 
L 316.638121 167.6 
L 317.099071 167.6 
L 317.560021 167.6 
L 318.020972 167.6 
L 318.481922 167.6 
L 318.942872 167.6 
L 319.403823 167.6 
L 319.864773 167.6 
L 320.325723 167.6 
L 320.786674 167.6 
L 321.247624 167.6 
L 321.708574 167.6 
L 322.169525 167.6 
L 322.4 167.6 
L 322.169525 168.04331 
L 321.708574 168.929912 
L 321.247624 169.816459 
L 320.786674 170.702913 
L 320.325723 171.589238 
L 319.864773 172.475397 
L 319.403823 173.361353 
L 318.942872 174.247068 
L 318.481922 175.132507 
L 318.020972 176.017631 
L 317.560021 176.902405 
L 317.099071 177.786792 
L 316.638121 178.670754 
L 316.17717 179.554254 
L 315.71622 180.437257 
L 315.25527 181.319724 
L 314.794319 182.20162 
L 314.333369 183.082908 
L 313.872419 183.96355 
L 313.411468 184.843511 
L 312.950518 185.722754 
L 312.489568 186.601241 
L 312.028617 187.478937 
L 311.567667 188.355805 
L 311.106717 189.231809 
L 310.645766 190.106911 
L 310.184816 190.981076 
L 309.723866 191.854268 
L 309.262915 192.726449 
L 308.801965 193.597584 
L 308.341015 194.467636 
L 307.880064 195.33657 
L 307.419114 196.204348 
L 306.958164 197.070936 
L 306.497213 197.936297 
L 306.036263 198.800394 
L 305.575313 199.663193 
L 305.114362 200.524658 
L 304.653412 201.384752 
L 304.192462 202.243439 
L 303.731511 203.100685 
L 303.270561 203.956454 
L 302.809611 204.81071 
L 302.34866 205.663417 
L 301.88771 206.514541 
L 301.42676 207.364046 
L 300.965809 208.211897 
L 300.504859 209.058058 
L 300.043909 209.902495 
L 299.582958 210.745173 
L 299.122008 211.586056 
L 298.661058 212.42511 
L 298.200107 213.262301 
L 297.739157 214.097593 
L 297.278207 214.930952 
L 296.817256 215.762344 
L 296.356306 216.591734 
L 295.895356 217.419088 
L 295.434405 218.244372 
L 294.973455 219.067551 
L 294.512505 219.888592 
L 294.051554 220.707461 
L 293.590604 221.524124 
L 293.129654 222.338547 
L 292.668703 223.150697 
L 292.207753 223.96054 
L 291.746803 224.768043 
L 291.285852 225.573172 
L 290.824902 226.375896 
L 290.363952 227.176179 
L 289.903001 227.973991 
L 289.442051 228.769297 
L 288.981101 229.562065 
L 288.52015 230.352262 
L 288.0592 231.139857 
L 287.59825 231.924816 
L 287.137299 232.707108 
L 286.676349 233.486701 
L 286.215399 234.263562 
L 285.754448 235.037659 
L 285.293498 235.808962 
L 284.832548 236.577438 
L 284.371597 237.343056 
L 283.910647 238.105784 
L 283.449697 238.865593 
L 282.988746 239.622449 
L 282.527796 240.376324 
L 282.066846 241.127185 
L 281.605895 241.875002 
L 281.144945 242.619745 
L 280.683995 243.361384 
L 280.223044 244.099888 
L 279.762094 244.835227 
L 279.301144 245.567372 
L 278.840193 246.296292 
L 278.379243 247.021958 
L 277.918293 247.744341 
L 277.457342 248.463411 
L 276.996392 249.17914 
L 276.535442 249.891497 
L 276.074491 250.600455 
L 275.613541 251.305985 
L 275.152591 252.008058 
L 274.69164 252.706646 
L 274.23069 253.401721 
L 273.76974 254.093254 
L 273.308789 254.781218 
L 272.847839 255.465586 
L 272.386889 256.146329 
L 271.925938 256.823421 
L 271.464988 257.496834 
L 271.004038 258.166541 
L 270.543087 258.832516 
L 270.082137 259.494731 
L 269.621187 260.153161 
L 269.160236 260.807779 
L 268.699286 261.458559 
L 268.238336 262.105474 
L 267.777385 262.7485 
L 267.316435 263.38761 
L 266.855485 264.02278 
L 266.394534 264.653983 
L 265.933584 265.281196 
L 265.472634 265.904393 
L 265.011683 266.523549 
L 264.550733 267.13864 
L 264.089783 267.749642 
L 263.628832 268.356531 
L 263.167882 268.959282 
L 262.706932 269.557873 
L 262.245981 270.152279 
L 261.785031 270.742478 
L 261.324081 271.328445 
L 260.86313 271.910159 
L 260.40218 272.487597 
L 259.94123 273.060735 
L 259.480279 273.629552 
L 259.019329 274.194026 
L 258.558379 274.754135 
L 258.097428 275.309856 
L 257.636478 275.861169 
L 257.175528 276.408052 
L 256.714577 276.950485 
L 256.253627 277.488445 
L 255.792677 278.021913 
L 255.331726 278.550868 
L 254.870776 279.07529 
L 254.409826 279.595159 
L 253.948875 280.110455 
L 253.487925 280.621158 
L 253.026975 281.127249 
L 252.566024 281.628709 
L 252.105074 282.125519 
L 251.644124 282.61766 
L 251.183173 283.105113 
L 250.722223 283.587861 
L 250.261273 284.065884 
L 249.800322 284.539166 
L 249.339372 285.007689 
L 248.878422 285.471435 
L 248.417471 285.930386 
L 247.956521 286.384527 
L 247.495571 286.83384 
L 247.03462 287.278308 
L 246.57367 287.717916 
L 246.11272 288.152647 
L 245.651769 288.582486 
L 245.190819 289.007416 
L 244.729868 289.427423 
L 244.268918 289.842491 
L 243.807968 290.252606 
L 243.347017 290.657752 
L 242.886067 291.057915 
L 242.425117 291.453081 
L 241.964166 291.843236 
L 241.503216 292.228366 
L 241.042266 292.608458 
L 240.581315 292.983498 
L 240.120365 293.353473 
L 239.659415 293.718371 
L 239.198464 294.078178 
L 238.737514 294.432883 
L 238.276564 294.782473 
L 237.815613 295.126937 
L 237.354663 295.466262 
L 236.893713 295.800438 
L 236.432762 296.129453 
L 235.971812 296.453297 
L 235.510862 296.771958 
L 235.049911 297.085426 
L 234.588961 297.393691 
L 234.128011 297.696744 
L 233.66706 297.994573 
L 233.20611 298.287171 
L 232.74516 298.574528 
L 232.284209 298.856634 
L 231.823259 299.133481 
L 231.362309 299.40506 
L 230.901358 299.671364 
L 230.440408 299.932384 
L 229.979458 300.188113 
L 229.518507 300.438543 
L 229.057557 300.683666 
L 228.596607 300.923477 
L 228.135656 301.157967 
L 227.674706 301.387131 
L 227.213756 301.610962 
L 226.752805 301.829455 
L 226.291855 302.042603 
L 225.830905 302.250401 
L 225.369954 302.452843 
L 224.909004 302.649926 
L 224.448054 302.841643 
L 223.987103 303.027991 
L 223.526153 303.208965 
L 223.065203 303.384561 
L 222.604252 303.554776 
L 222.143302 303.719606 
L 221.682352 303.879047 
L 221.221401 304.033097 
L 220.760451 304.181753 
L 220.299501 304.325012 
L 219.83855 304.462873 
L 219.3776 304.595333 
L 218.91665 304.72239 
L 218.455699 304.844043 
L 217.994749 304.960291 
L 217.533799 305.071132 
L 217.072848 305.176567 
L 216.611898 305.276594 
L 216.150948 305.371213 
L 215.689997 305.460425 
L 215.229047 305.544229 
L 214.768097 305.622627 
L 214.307146 305.695618 
L 213.846196 305.763204 
L 213.385246 305.825387 
L 212.924295 305.882167 
L 212.463345 305.933547 
L 212.002395 305.979528 
L 211.541444 306.020113 
L 211.080494 306.055305 
L 210.619544 306.085106 
L 210.158593 306.109519 
L 209.697643 306.128548 
L 209.236693 306.142196 
L 208.775742 306.150467 
L 208.314792 306.153365 
L 207.853842 306.150894 
L 207.392891 306.143059 
L 206.931941 306.129864 
L 206.470991 306.111316 
L 206.01004 306.087418 
L 205.54909 306.058177 
L 205.08814 306.023598 
L 204.627189 305.983688 
L 204.166239 305.938453 
L 203.705289 305.887899 
L 203.244338 305.832032 
L 202.783388 305.770862 
L 202.322438 305.704393 
L 201.861487 305.632635 
L 201.400537 305.555594 
L 200.939587 305.473279 
L 200.478636 305.385698 
L 200.017686 305.29286 
L 199.556736 305.194773 
L 199.095785 305.091447 
L 198.634835 304.98289 
L 198.173885 304.869112 
L 197.712934 304.750124 
L 197.251984 304.625934 
L 196.791034 304.496554 
L 196.330083 304.361993 
L 195.869133 304.222263 
L 195.408183 304.077374 
L 194.947232 303.927337 
L 194.486282 303.772165 
L 194.025332 303.611868 
L 193.564381 303.446458 
L 193.103431 303.275949 
L 192.642481 303.100352 
L 192.18153 302.919679 
L 191.72058 302.733944 
L 191.25963 302.54316 
L 190.798679 302.34734 
L 190.337729 302.146498 
L 189.876779 301.940648 
L 189.415828 301.729802 
L 188.954878 301.513977 
L 188.493928 301.293186 
L 188.032977 301.067445 
L 187.572027 300.836767 
L 187.111077 300.601169 
L 186.650126 300.360665 
L 186.189176 300.115272 
L 185.728226 299.865005 
L 185.267275 299.609881 
L 184.806325 299.349916 
L 184.345375 299.085125 
L 183.884424 298.815527 
L 183.423474 298.541139 
L 182.962524 298.261976 
L 182.501573 297.978058 
L 182.040623 297.689401 
L 181.579673 297.396024 
L 181.118722 297.097944 
L 180.657772 296.79518 
L 180.196822 296.487751 
L 179.735871 296.175676 
L 179.274921 295.858972 
L 178.813971 295.537661 
L 178.35302 295.21176 
L 177.89207 294.88129 
L 177.43112 294.546271 
L 176.970169 294.206723 
L 176.509219 293.862665 
L 176.048269 293.514119 
L 175.587318 293.161105 
L 175.126368 292.803644 
L 174.665418 292.441757 
L 174.204467 292.075466 
L 173.743517 291.704792 
L 173.282567 291.329756 
L 172.821616 290.950382 
L 172.360666 290.56669 
L 171.899716 290.178704 
L 171.438765 289.786446 
L 170.977815 289.389938 
L 170.516865 288.989203 
L 170.055914 288.584266 
L 169.594964 288.175148 
L 169.134014 287.761874 
L 168.673063 287.344467 
L 168.212113 286.922952 
L 167.751162 286.497352 
L 167.290212 286.067691 
L 166.829262 285.633995 
L 166.368311 285.196287 
L 165.907361 284.754593 
L 165.446411 284.308938 
L 164.98546 283.859347 
L 164.52451 283.405845 
L 164.06356 282.948459 
L 163.602609 282.487213 
L 163.141659 282.022134 
L 162.680709 281.553248 
L 162.219758 281.080582 
L 161.758808 280.604161 
L 161.297858 280.124012 
L 160.836907 279.640163 
L 160.375957 279.15264 
L 159.915007 278.661471 
L 159.454056 278.166683 
L 158.993106 277.668303 
L 158.532156 277.16636 
L 158.071205 276.66088 
L 157.610255 276.151893 
L 157.149305 275.639426 
L 156.688354 275.123507 
L 156.227404 274.604166 
L 155.766454 274.08143 
L 155.305503 273.55533 
L 154.844553 273.025892 
L 154.383603 272.493148 
L 153.922652 271.957126 
L 153.461702 271.417856 
L 153.000752 270.875367 
L 152.539801 270.329688 
L 152.078851 269.780851 
L 151.617901 269.228885 
L 151.15695 268.67382 
L 150.696 268.115686 
L 150.23505 267.554514 
L 149.774099 266.990336 
L 149.313149 266.42318 
L 148.852199 265.853079 
L 148.391248 265.280063 
L 147.930298 264.704164 
L 147.469348 264.125413 
L 147.008397 263.543842 
L 146.547447 262.959481 
L 146.086497 262.372363 
L 145.625546 261.782519 
L 145.164596 261.189982 
L 144.703646 260.594784 
L 144.242695 259.996957 
L 143.781745 259.396532 
L 143.320795 258.793544 
L 142.859844 258.188023 
L 142.398894 257.580004 
L 141.937944 256.969518 
L 141.476993 256.356599 
L 141.016043 255.74128 
L 140.555093 255.123594 
L 140.094142 254.503574 
L 139.633192 253.881253 
L 139.172242 253.256666 
L 138.711291 252.629845 
L 138.250341 252.000825 
L 137.789391 251.369639 
L 137.32844 250.736321 
L 136.86749 250.100905 
L 136.40654 249.463426 
L 135.945589 248.823917 
L 135.484639 248.182412 
L 135.023689 247.538947 
L 134.562738 246.893555 
L 134.101788 246.246271 
L 133.640838 245.59713 
L 133.179887 244.946167 
L 132.718937 244.293415 
L 132.257987 243.638912 
L 131.797036 242.98269 
L 131.336086 242.324786 
L 130.875136 241.665234 
L 130.414185 241.00407 
L 129.953235 240.341329 
L 129.492285 239.677047 
L 129.031334 239.011258 
L 128.570384 238.343999 
L 128.109434 237.675304 
L 127.648483 237.005211 
L 127.187533 236.333753 
L 126.726583 235.660968 
L 126.265632 234.986891 
L 125.804682 234.311557 
L 125.343732 233.635004 
L 124.882781 232.957266 
L 124.421831 232.27838 
L 123.960881 231.598382 
L 123.49993 230.917309 
L 123.03898 230.235196 
L 122.57803 229.55208 
L 122.117079 228.867997 
L 121.656129 228.182983 
L 121.195179 227.497076 
L 120.734228 226.810311 
L 120.273278 226.122724 
L 119.812328 225.434353 
L 119.351377 224.745234 
L 118.890427 224.055404 
L 118.429477 223.364898 
L 117.968526 222.673755 
L 117.507576 221.98201 
L 117.046626 221.289701 
L 116.585675 220.596864 
L 116.124725 219.903535 
L 115.663775 219.209752 
L 115.202824 218.515552 
L 114.741874 217.820971 
L 114.280924 217.126047 
L 113.819973 216.430815 
L 113.359023 215.735314 
L 112.898073 215.039579 
L 112.437122 214.343648 
L 111.976172 213.647558 
L 111.515222 212.951346 
L 111.054271 212.255048 
L 110.593321 211.558702 
L 110.132371 210.862344 
L 109.67142 210.166012 
L 109.21047 209.469742 
L 108.74952 208.773572 
L 108.288569 208.077538 
L 107.827619 207.381677 
L 107.366669 206.686026 
L 106.905718 205.990622 
L 106.444768 205.295503 
L 105.983818 204.600704 
L 105.522867 203.906263 
L 105.061917 203.212216 
L 104.600967 202.518601 
L 104.140016 201.825454 
L 103.679066 201.132812 
L 103.218116 200.440712 
L 102.757165 199.749191 
L 102.296215 199.058285 
L 101.835265 198.368031 
L 101.374314 197.678465 
L 100.913364 196.989625 
L 100.452414 196.301547 
L 99.991463 195.614267 
L 99.530513 194.927822 
L 99.069563 194.242248 
L 98.608612 193.557583 
L 98.147662 192.873862 
L 97.686712 192.191121 
L 97.225761 191.509397 
L 96.764811 190.828727 
L 96.303861 190.149146 
L 95.84291 189.47069 
L 95.38196 188.793396 
L 94.92101 188.1173 
L 94.460059 187.442438 
L 93.999109 186.768846 
L 93.538159 186.096559 
L 93.077208 185.425614 
L 92.616258 184.756045 
L 92.155308 184.08789 
L 91.694357 183.421183 
L 91.233407 182.75596 
L 90.772456 182.092257 
L 90.311506 181.430109 
L 89.850556 180.769551 
L 89.389605 180.110619 
L 88.928655 179.453347 
L 88.467705 178.797772 
L 88.006754 178.143927 
L 87.545804 177.491849 
L 87.084854 176.841571 
L 86.623903 176.193129 
L 86.162953 175.546557 
L 85.702003 174.901891 
L 85.241052 174.259163 
L 84.780102 173.61841 
L 84.319152 172.979665 
L 83.858201 172.342963 
L 83.397251 171.708337 
L 82.936301 171.075822 
L 82.47535 170.445452 
L 82.0144 169.81726 
L 81.55345 169.191281 
L 81.092499 168.567548 
L 80.631549 167.946094 
z
" clip-path="url(#pcaf03a384f)" style="fill: #e2c990; fill-opacity: 0.78; stroke: #e2c990; stroke-opacity: 0.78"/>
    <path d="M 564.426118 167.6 
L 564.629401 167.6 
L 565.090352 167.6 
L 565.551302 167.6 
L 566.012252 167.6 
L 566.473203 167.6 
L 566.934153 167.6 
L 567.395103 167.6 
L 567.856054 167.6 
L 568.317004 167.6 
L 568.777954 167.6 
L 569.238905 167.6 
L 569.699855 167.6 
L 570.160805 167.6 
L 570.621756 167.6 
L 571.082706 167.6 
L 571.543656 167.6 
L 572.004607 167.6 
L 572.465557 167.6 
L 572.926507 167.6 
L 573.387458 167.6 
L 573.848408 167.6 
L 574.309358 167.6 
L 574.770309 167.6 
L 575.231259 167.6 
L 575.692209 167.6 
L 576.15316 167.6 
L 576.61411 167.6 
L 577.07506 167.6 
L 577.536011 167.6 
L 577.996961 167.6 
L 578.457911 167.6 
L 578.918862 167.6 
L 579.379812 167.6 
L 579.840762 167.6 
L 580.301713 167.6 
L 580.762663 167.6 
L 581.223613 167.6 
L 581.684564 167.6 
L 582.145514 167.6 
L 582.606464 167.6 
L 583.067415 167.6 
L 583.528365 167.6 
L 583.989315 167.6 
L 584.450266 167.6 
L 584.911216 167.6 
L 585.372166 167.6 
L 585.833117 167.6 
L 586.294067 167.6 
L 586.755017 167.6 
L 587.215968 167.6 
L 587.676918 167.6 
L 588.137868 167.6 
L 588.598819 167.6 
L 589.059769 167.6 
L 589.520719 167.6 
L 589.98167 167.6 
L 590.44262 167.6 
L 590.90357 167.6 
L 591.364521 167.6 
L 591.825471 167.6 
L 592.286421 167.6 
L 592.747372 167.6 
L 593.208322 167.6 
L 593.669272 167.6 
L 594.130223 167.6 
L 594.591173 167.6 
L 595.052123 167.6 
L 595.513074 167.6 
L 595.974024 167.6 
L 596.434974 167.6 
L 596.895925 167.6 
L 597.356875 167.6 
L 597.817825 167.6 
L 598.278776 167.6 
L 598.739726 167.6 
L 598.739726 167.6 
L 598.739726 205.094628 
L 598.278776 204.730001 
L 597.817825 204.360984 
L 597.356875 203.987597 
L 596.895925 203.609862 
L 596.434974 203.227802 
L 595.974024 202.841439 
L 595.513074 202.450795 
L 595.052123 202.055893 
L 594.591173 201.656755 
L 594.130223 201.253406 
L 593.669272 200.845868 
L 593.208322 200.434164 
L 592.747372 200.018319 
L 592.286421 199.598356 
L 591.825471 199.174299 
L 591.364521 198.746172 
L 590.90357 198.314001 
L 590.44262 197.877809 
L 589.98167 197.437621 
L 589.520719 196.993462 
L 589.059769 196.545358 
L 588.598819 196.093333 
L 588.137868 195.637414 
L 587.676918 195.177626 
L 587.215968 194.713995 
L 586.755017 194.246547 
L 586.294067 193.775308 
L 585.833117 193.300305 
L 585.372166 192.821565 
L 584.911216 192.339113 
L 584.450266 191.852978 
L 583.989315 191.363186 
L 583.528365 190.869764 
L 583.067415 190.372741 
L 582.606464 189.872143 
L 582.145514 189.367999 
L 581.684564 188.860336 
L 581.223613 188.349182 
L 580.762663 187.834567 
L 580.301713 187.316518 
L 579.840762 186.795064 
L 579.379812 186.270233 
L 578.918862 185.742056 
L 578.457911 185.21056 
L 577.996961 184.675775 
L 577.536011 184.137731 
L 577.07506 183.596456 
L 576.61411 183.051982 
L 576.15316 182.504337 
L 575.692209 181.953551 
L 575.231259 181.399655 
L 574.770309 180.84268 
L 574.309358 180.282654 
L 573.848408 179.71961 
L 573.387458 179.153578 
L 572.926507 178.584588 
L 572.465557 178.012672 
L 572.004607 177.437861 
L 571.543656 176.860186 
L 571.082706 176.279678 
L 570.621756 175.696369 
L 570.160805 175.110291 
L 569.699855 174.521475 
L 569.238905 173.929954 
L 568.777954 173.335759 
L 568.317004 172.738923 
L 567.856054 172.139478 
L 567.395103 171.537456 
L 566.934153 170.93289 
L 566.473203 170.325813 
L 566.012252 169.716257 
L 565.551302 169.104255 
L 565.090352 168.489841 
L 564.629401 167.873046 
z
" clip-path="url(#pcaf03a384f)" style="fill: #e2c990; fill-opacity: 0.78; stroke: #e2c990; stroke-opacity: 0.78"/>
   </g>
   <g id="matplotlib.axis_1">
    <g id="xtick_1">
     <g id="line2d_1">
      <defs>
       <path id="m45f951061e" d="M 0 0 
L 0 5 
" style="stroke: #29343d; stroke-width: 1.3"/>
      </defs>
      <g>
       <use xlink:href="#m45f951061e" x="46.060274" y="167.6" style="fill: #29343d; stroke: #29343d; stroke-width: 1.3"/>
      </g>
     </g>
     <g id="text_1">
      <!-- $a$ -->
      <g style="fill: #29343d" transform="translate(41.470274 192.56)">
       <text>
        <tspan x="0" y="-0.0625" style="font-style: italic; font-size: 18px; font-family: 'STIXGeneral'; fill: #29343d">a</tspan>
       </text>
      </g>
     </g>
    </g>
    <g id="xtick_2">
     <g id="line2d_2">
      <g>
       <use xlink:href="#m45f951061e" x="322.4" y="167.6" style="fill: #29343d; stroke: #29343d; stroke-width: 1.3"/>
      </g>
     </g>
     <g id="text_2">
      <text style="font-size: 18px; font-family: 'Noto Serif SC', 'Songti SC', 'STSong', 'SimSun', 'NSimSun', serif; text-anchor: middle; fill: #29343d" x="322.4" y="192.56" transform="rotate(-0 322.4 192.56)">0</text>
     </g>
    </g>
    <g id="xtick_3">
     <g id="line2d_3">
      <g>
       <use xlink:href="#m45f951061e" x="598.739726" y="167.6" style="fill: #29343d; stroke: #29343d; stroke-width: 1.3"/>
      </g>
     </g>
     <g id="text_3">
      <!-- $b$ -->
      <g style="fill: #29343d" transform="translate(594.239726 192.56)">
       <text>
        <tspan x="0" y="-0.703125" style="font-style: italic; font-size: 18px; font-family: 'STIXGeneral'; fill: #29343d">b</tspan>
       </text>
      </g>
     </g>
    </g>
   </g>
   <g id="matplotlib.axis_2"/>
   <g id="line2d_4">
    <path d="M 46.060274 130.105372 
L 49.747877 133.144107 
L 53.435479 136.453828 
L 57.584032 140.486005 
L 61.732585 144.827259 
L 66.342089 149.98944 
L 70.951592 155.48039 
L 76.022046 161.864241 
L 81.55345 169.191281 
L 87.545804 177.491849 
L 94.92101 188.1173 
L 104.140016 201.825454 
L 128.109434 237.675304 
L 135.484639 248.182412 
L 141.476993 256.356599 
L 147.008397 263.543842 
L 152.078851 269.780851 
L 156.688354 275.123507 
L 161.297858 280.124012 
L 165.446411 284.308938 
L 169.594964 288.175148 
L 173.282567 291.329756 
L 176.970169 294.206723 
L 180.657772 296.79518 
L 184.345375 299.085125 
L 187.572027 300.836767 
L 190.798679 302.34734 
L 194.025332 303.611868 
L 197.251984 304.625934 
L 200.478636 305.385698 
L 203.705289 305.887899 
L 206.470991 306.111316 
L 209.236693 306.142196 
L 212.002395 305.979528 
L 214.768097 305.622627 
L 217.533799 305.071132 
L 220.760451 304.181753 
L 223.987103 303.027991 
L 227.213756 301.610962 
L 230.440408 299.932384 
L 233.66706 297.994573 
L 236.893713 295.800438 
L 240.120365 293.353473 
L 243.807968 290.252606 
L 247.495571 286.83384 
L 251.183173 283.105113 
L 254.870776 279.07529 
L 259.019329 274.194026 
L 263.167882 268.959282 
L 267.316435 263.38761 
L 271.925938 256.823421 
L 276.996392 249.17914 
L 282.066846 241.127185 
L 287.59825 231.924816 
L 293.590604 221.524124 
L 300.504859 209.058058 
L 308.801965 193.597584 
L 320.325723 171.589238 
L 337.841836 138.129064 
L 346.138942 122.77489 
L 353.053197 110.431957 
L 359.045552 100.162341 
L 364.576956 91.100112 
L 369.647409 83.191942 
L 374.717863 75.705269 
L 379.327366 69.295607 
L 383.93687 63.289841 
L 388.085423 58.249515 
L 392.233976 53.571291 
L 395.921578 49.728565 
L 399.609181 46.192584 
L 403.296784 42.971634 
L 406.984387 40.073063 
L 410.211039 37.806309 
L 413.437691 35.79494 
L 416.664344 34.042033 
L 419.890996 32.550074 
L 423.117648 31.320953 
L 426.344301 30.355957 
L 429.570953 29.655771 
L 432.336655 29.266453 
L 435.102357 29.071452 
L 437.868059 29.070136 
L 440.633761 29.261547 
L 443.860413 29.726721 
L 447.087066 30.449876 
L 450.313718 31.427835 
L 453.54037 32.65684 
L 456.767023 34.132555 
L 459.993675 35.850084 
L 463.220327 37.803976 
L 466.90793 40.31871 
L 470.595533 43.124534 
L 474.283135 46.210797 
L 477.970738 49.566005 
L 482.119291 53.646752 
L 486.267844 58.03364 
L 490.877348 63.242874 
L 495.486851 68.77682 
L 500.557305 75.203043 
L 506.088709 82.570155 
L 512.542013 91.561088 
L 519.917219 102.242734 
L 529.597176 116.684448 
L 550.339941 147.757562 
L 557.715146 158.358429 
L 564.168451 167.253906 
L 569.699855 174.521475 
L 574.770309 180.84268 
L 579.379812 186.270233 
L 583.989315 191.363186 
L 588.137868 195.637414 
L 592.286421 199.598356 
L 596.434974 203.227802 
L 598.739726 205.094628 
L 598.739726 205.094628 
" clip-path="url(#pcaf03a384f)" style="fill: none; stroke: #29343d; stroke-width: 2.6; stroke-linecap: square"/>
   </g>
   <g id="line2d_5">
    <path d="M 46.060274 328 
L 46.060274 7.2 
" clip-path="url(#pcaf03a384f)" style="fill: none; stroke: #29343d; stroke-width: 1.2; stroke-linecap: square"/>
   </g>
   <g id="line2d_6">
    <path d="M 598.739726 328 
L 598.739726 7.2 
" clip-path="url(#pcaf03a384f)" style="fill: none; stroke: #29343d; stroke-width: 1.2; stroke-linecap: square"/>
   </g>
   <g id="patch_3">
    <path d="M 7.2 328 
L 7.2 7.2 
" style="fill: none; stroke: #29343d; stroke-width: 1.6; stroke-linejoin: miter; stroke-linecap: square"/>
   </g>
   <g id="patch_4">
    <path d="M 7.2 167.6 
L 637.6 167.6 
" style="fill: none; stroke: #29343d; stroke-width: 1.6; stroke-linejoin: miter; stroke-linecap: square"/>
   </g>
   <g id="text_4">
    <!-- $+$ -->
    <g style="fill: #487ca3" transform="translate(145.380479 98.538889)">
     <text>
      <tspan x="0" y="-0.328125" style="font-size: 18px; font-family: 'STIXGeneral'; fill: #487ca3">+</tspan>
     </text>
    </g>
   </g>
   <g id="text_5">
    <!-- $-$ -->
    <g style="fill: #b78938" transform="translate(343.999658 261.166667)">
     <text>
      <tspan x="0" y="-0.84375" style="font-size: 18px; font-family: 'STIXGeneral'; fill: #b78938">−</tspan>
     </text>
    </g>
   </g>
   <g id="text_6">
    <!-- $+$ -->
    <g style="fill: #487ca3" transform="translate(499.440753 62.894444)">
     <text>
      <tspan x="0" y="-0.328125" style="font-size: 18px; font-family: 'STIXGeneral'; fill: #487ca3">+</tspan>
     </text>
    </g>
   </g>
  </g>
 </g>
 <defs>
  <clipPath id="pcaf03a384f">
   <rect x="7.2" y="7.2" width="630.4" height="320.8"/>
  </clipPath>
 </defs>
</svg>
