<?xml version="1.0" encoding="utf-8" standalone="no"?>
<!DOCTYPE svg PUBLIC "-//W3C//DTD SVG 1.1//EN"
  "http://www.w3.org/Graphics/SVG/1.1/DTD/svg11.dtd">
<svg xmlns:xlink="http://www.w3.org/1999/xlink" width="511.2pt" height="288pt" viewBox="0 0 511.2 288" xmlns="http://www.w3.org/2000/svg" version="1.1">
 <metadata>
  <rdf:RDF xmlns:dc="http://purl.org/dc/elements/1.1/" xmlns:cc="http://creativecommons.org/ns#" xmlns:rdf="http://www.w3.org/1999/02/22-rdf-syntax-ns#">
   <cc:Work>
    <dc:type rdf:resource="http://purl.org/dc/dcmitype/StillImage"/>
    <dc:date>2026-07-21T11:31:34.299396</dc:date>
    <dc:format>image/svg+xml</dc:format>
    <dc:creator>
     <cc:Agent>
      <dc:title>Matplotlib v3.10.7, https://matplotlib.org/</dc:title>
     </cc:Agent>
    </dc:creator>
   </cc:Work>
  </rdf:RDF>
 </metadata>
 <defs>
  <style type="text/css">*{stroke-linejoin: round; stroke-linecap: butt}</style>
 </defs>
 <g id="figure_1">
  <g id="patch_1">
   <path d="M 0 288 
L 511.2 288 
L 511.2 0 
L 0 0 
z
" style="fill: #fdfdfd"/>
  </g>
  <g id="axes_1">
   <g id="patch_2">
    <path d="M 9.9 278.1 
L 501.3 278.1 
L 501.3 9.9 
L 9.9 9.9 
z
" style="fill: #ffffff"/>
   </g>
   <g id="FillBetweenPolyCollection_1">
    <defs>
     <path id="m2c4da77afe" d="M 94.800941 -211.911095 
L 94.800941 -47.448 
L 95.550587 -47.448 
L 96.300233 -47.448 
L 97.049879 -47.448 
L 97.799525 -47.448 
L 98.549171 -47.448 
L 99.298817 -47.448 
L 100.048463 -47.448 
L 100.798109 -47.448 
L 101.547755 -47.448 
L 102.297401 -47.448 
L 103.047047 -47.448 
L 103.796693 -47.448 
L 104.546339 -47.448 
L 105.295985 -47.448 
L 106.045631 -47.448 
L 106.795277 -47.448 
L 107.544923 -47.448 
L 108.294569 -47.448 
L 109.044214 -47.448 
L 109.79386 -47.448 
L 110.543506 -47.448 
L 111.293152 -47.448 
L 112.042798 -47.448 
L 112.792444 -47.448 
L 113.54209 -47.448 
L 114.291736 -47.448 
L 115.041382 -47.448 
L 115.791028 -47.448 
L 116.540674 -47.448 
L 117.29032 -47.448 
L 118.039966 -47.448 
L 118.789612 -47.448 
L 119.539258 -47.448 
L 120.288904 -47.448 
L 121.03855 -47.448 
L 121.788196 -47.448 
L 122.537842 -47.448 
L 123.287488 -47.448 
L 124.037134 -47.448 
L 124.78678 -47.448 
L 125.536426 -47.448 
L 126.286072 -47.448 
L 127.035718 -47.448 
L 127.785364 -47.448 
L 128.535009 -47.448 
L 129.284655 -47.448 
L 130.034301 -47.448 
L 130.783947 -47.448 
L 131.533593 -47.448 
L 132.283239 -47.448 
L 133.032885 -47.448 
L 133.782531 -47.448 
L 134.532177 -47.448 
L 135.281823 -47.448 
L 136.031469 -47.448 
L 136.781115 -47.448 
L 137.530761 -47.448 
L 138.280407 -47.448 
L 139.030053 -47.448 
L 139.779699 -47.448 
L 140.529345 -47.448 
L 141.278991 -47.448 
L 142.028637 -47.448 
L 142.778283 -47.448 
L 143.527929 -47.448 
L 144.277575 -47.448 
L 145.027221 -47.448 
L 145.776867 -47.448 
L 146.526513 -47.448 
L 147.276159 -47.448 
L 148.025805 -47.448 
L 148.77545 -47.448 
L 149.525096 -47.448 
L 150.274742 -47.448 
L 151.024388 -47.448 
L 151.774034 -47.448 
L 152.52368 -47.448 
L 153.273326 -47.448 
L 154.022972 -47.448 
L 154.772618 -47.448 
L 155.522264 -47.448 
L 156.27191 -47.448 
L 157.021556 -47.448 
L 157.771202 -47.448 
L 158.520848 -47.448 
L 159.270494 -47.448 
L 160.02014 -47.448 
L 160.769786 -47.448 
L 161.519432 -47.448 
L 162.269078 -47.448 
L 163.018724 -47.448 
L 163.76837 -47.448 
L 164.518016 -47.448 
L 165.267662 -47.448 
L 166.017308 -47.448 
L 166.766954 -47.448 
L 167.5166 -47.448 
L 168.266245 -47.448 
L 169.015891 -47.448 
L 169.765537 -47.448 
L 170.515183 -47.448 
L 171.264829 -47.448 
L 172.014475 -47.448 
L 172.764121 -47.448 
L 173.513767 -47.448 
L 174.263413 -47.448 
L 175.013059 -47.448 
L 175.762705 -47.448 
L 176.512351 -47.448 
L 177.261997 -47.448 
L 178.011643 -47.448 
L 178.761289 -47.448 
L 179.510935 -47.448 
L 180.260581 -47.448 
L 181.010227 -47.448 
L 181.759873 -47.448 
L 182.509519 -47.448 
L 183.259165 -47.448 
L 184.008811 -47.448 
L 184.758457 -47.448 
L 185.508103 -47.448 
L 186.257749 -47.448 
L 187.007395 -47.448 
L 187.75704 -47.448 
L 188.506686 -47.448 
L 189.256332 -47.448 
L 190.005978 -47.448 
L 190.755624 -47.448 
L 191.50527 -47.448 
L 192.254916 -47.448 
L 193.004562 -47.448 
L 193.754208 -47.448 
L 194.503854 -47.448 
L 195.2535 -47.448 
L 196.003146 -47.448 
L 196.752792 -47.448 
L 197.502438 -47.448 
L 198.252084 -47.448 
L 199.00173 -47.448 
L 199.751376 -47.448 
L 200.501022 -47.448 
L 201.250668 -47.448 
L 202.000314 -47.448 
L 202.74996 -47.448 
L 203.499606 -47.448 
L 204.249252 -47.448 
L 204.998898 -47.448 
L 205.748544 -47.448 
L 206.49819 -47.448 
L 207.247835 -47.448 
L 207.997481 -47.448 
L 208.747127 -47.448 
L 209.496773 -47.448 
L 210.246419 -47.448 
L 210.996065 -47.448 
L 211.745711 -47.448 
L 212.495357 -47.448 
L 213.245003 -47.448 
L 213.994649 -47.448 
L 214.744295 -47.448 
L 215.493941 -47.448 
L 216.243587 -47.448 
L 216.993233 -47.448 
L 217.742879 -47.448 
L 218.492525 -47.448 
L 219.242171 -47.448 
L 219.991817 -47.448 
L 220.741463 -47.448 
L 221.491109 -47.448 
L 222.240755 -47.448 
L 222.990401 -47.448 
L 223.740047 -47.448 
L 224.489693 -47.448 
L 225.239339 -47.448 
L 225.988985 -47.448 
L 226.73863 -47.448 
L 227.488276 -47.448 
L 228.237922 -47.448 
L 228.987568 -47.448 
L 229.737214 -47.448 
L 230.48686 -47.448 
L 231.236506 -47.448 
L 231.986152 -47.448 
L 232.735798 -47.448 
L 233.485444 -47.448 
L 234.23509 -47.448 
L 234.984736 -47.448 
L 235.734382 -47.448 
L 236.484028 -47.448 
L 237.233674 -47.448 
L 237.98332 -47.448 
L 238.732966 -47.448 
L 239.482612 -47.448 
L 240.232258 -47.448 
L 240.981904 -47.448 
L 241.73155 -47.448 
L 242.481196 -47.448 
L 243.230842 -47.448 
L 243.980488 -47.448 
L 244.730134 -47.448 
L 245.47978 -47.448 
L 246.229425 -47.448 
L 246.979071 -47.448 
L 247.728717 -47.448 
L 248.478363 -47.448 
L 249.228009 -47.448 
L 249.977655 -47.448 
L 250.727301 -47.448 
L 251.476947 -47.448 
L 252.226593 -47.448 
L 252.976239 -47.448 
L 253.725885 -47.448 
L 254.475531 -47.448 
L 255.225177 -47.448 
L 255.974823 -47.448 
L 256.724469 -47.448 
L 257.474115 -47.448 
L 258.223761 -47.448 
L 258.973407 -47.448 
L 259.723053 -47.448 
L 260.472699 -47.448 
L 261.222345 -47.448 
L 261.971991 -47.448 
L 262.721637 -47.448 
L 263.471283 -47.448 
L 264.220929 -47.448 
L 264.970575 -47.448 
L 265.72022 -47.448 
L 266.469866 -47.448 
L 267.219512 -47.448 
L 267.969158 -47.448 
L 268.718804 -47.448 
L 269.46845 -47.448 
L 270.218096 -47.448 
L 270.967742 -47.448 
L 271.717388 -47.448 
L 272.467034 -47.448 
L 273.21668 -47.448 
L 273.966326 -47.448 
L 274.715972 -47.448 
L 275.465618 -47.448 
L 276.215264 -47.448 
L 276.96491 -47.448 
L 277.714556 -47.448 
L 278.464202 -47.448 
L 279.213848 -47.448 
L 279.963494 -47.448 
L 280.71314 -47.448 
L 281.462786 -47.448 
L 282.212432 -47.448 
L 282.962078 -47.448 
L 283.711724 -47.448 
L 284.46137 -47.448 
L 285.211015 -47.448 
L 285.960661 -47.448 
L 286.710307 -47.448 
L 287.459953 -47.448 
L 288.209599 -47.448 
L 288.959245 -47.448 
L 289.708891 -47.448 
L 290.458537 -47.448 
L 291.208183 -47.448 
L 291.957829 -47.448 
L 292.707475 -47.448 
L 293.457121 -47.448 
L 294.206767 -47.448 
L 294.956413 -47.448 
L 295.706059 -47.448 
L 296.455705 -47.448 
L 297.205351 -47.448 
L 297.954997 -47.448 
L 298.704643 -47.448 
L 299.454289 -47.448 
L 300.203935 -47.448 
L 300.953581 -47.448 
L 301.703227 -47.448 
L 302.452873 -47.448 
L 303.202519 -47.448 
L 303.952165 -47.448 
L 304.70181 -47.448 
L 305.451456 -47.448 
L 306.201102 -47.448 
L 306.950748 -47.448 
L 307.700394 -47.448 
L 308.45004 -47.448 
L 309.199686 -47.448 
L 309.949332 -47.448 
L 310.698978 -47.448 
L 311.448624 -47.448 
L 312.19827 -47.448 
L 312.947916 -47.448 
L 313.697562 -47.448 
L 314.447208 -47.448 
L 315.196854 -47.448 
L 315.9465 -47.448 
L 316.696146 -47.448 
L 317.445792 -47.448 
L 318.195438 -47.448 
L 318.945084 -47.448 
L 319.69473 -47.448 
L 320.444376 -47.448 
L 321.194022 -47.448 
L 321.943668 -47.448 
L 322.693314 -47.448 
L 323.44296 -47.448 
L 324.192605 -47.448 
L 324.942251 -47.448 
L 325.691897 -47.448 
L 326.441543 -47.448 
L 327.191189 -47.448 
L 327.940835 -47.448 
L 328.690481 -47.448 
L 329.440127 -47.448 
L 330.189773 -47.448 
L 330.939419 -47.448 
L 331.689065 -47.448 
L 332.438711 -47.448 
L 333.188357 -47.448 
L 333.938003 -47.448 
L 334.687649 -47.448 
L 335.437295 -47.448 
L 336.186941 -47.448 
L 336.936587 -47.448 
L 337.686233 -47.448 
L 338.435879 -47.448 
L 339.185525 -47.448 
L 339.935171 -47.448 
L 340.684817 -47.448 
L 341.434463 -47.448 
L 342.184109 -47.448 
L 342.933755 -47.448 
L 343.6834 -47.448 
L 344.433046 -47.448 
L 345.182692 -47.448 
L 345.932338 -47.448 
L 346.681984 -47.448 
L 347.43163 -47.448 
L 348.181276 -47.448 
L 348.930922 -47.448 
L 349.680568 -47.448 
L 350.430214 -47.448 
L 351.17986 -47.448 
L 351.929506 -47.448 
L 352.679152 -47.448 
L 353.428798 -47.448 
L 354.178444 -47.448 
L 354.92809 -47.448 
L 355.677736 -47.448 
L 356.427382 -47.448 
L 357.177028 -47.448 
L 357.926674 -47.448 
L 358.67632 -47.448 
L 359.425966 -47.448 
L 360.175612 -47.448 
L 360.925258 -47.448 
L 361.674904 -47.448 
L 362.42455 -47.448 
L 363.174195 -47.448 
L 363.923841 -47.448 
L 364.673487 -47.448 
L 365.423133 -47.448 
L 366.172779 -47.448 
L 366.922425 -47.448 
L 367.672071 -47.448 
L 368.421717 -47.448 
L 369.171363 -47.448 
L 369.921009 -47.448 
L 370.670655 -47.448 
L 371.420301 -47.448 
L 372.169947 -47.448 
L 372.919593 -47.448 
L 373.669239 -47.448 
L 374.418885 -47.448 
L 375.168531 -47.448 
L 375.918177 -47.448 
L 376.667823 -47.448 
L 377.417469 -47.448 
L 378.167115 -47.448 
L 378.916761 -47.448 
L 379.666407 -47.448 
L 380.416053 -47.448 
L 381.165699 -47.448 
L 381.915345 -47.448 
L 382.664991 -47.448 
L 382.664991 -189.347279 
L 382.664991 -189.347279 
L 381.915345 -189.012915 
L 381.165699 -188.681288 
L 380.416053 -188.352439 
L 379.666407 -188.026406 
L 378.916761 -187.703227 
L 378.167115 -187.38294 
L 377.417469 -187.065583 
L 376.667823 -186.751193 
L 375.918177 -186.439807 
L 375.168531 -186.131461 
L 374.418885 -185.82619 
L 373.669239 -185.524031 
L 372.919593 -185.225019 
L 372.169947 -184.929187 
L 371.420301 -184.63657 
L 370.670655 -184.347202 
L 369.921009 -184.061115 
L 369.171363 -183.778343 
L 368.421717 -183.498917 
L 367.672071 -183.22287 
L 366.922425 -182.950232 
L 366.172779 -182.681035 
L 365.423133 -182.415309 
L 364.673487 -182.153083 
L 363.923841 -181.894386 
L 363.174195 -181.639249 
L 362.42455 -181.387698 
L 361.674904 -181.139761 
L 360.925258 -180.895467 
L 360.175612 -180.654841 
L 359.425966 -180.41791 
L 358.67632 -180.184699 
L 357.926674 -179.955234 
L 357.177028 -179.729539 
L 356.427382 -179.507638 
L 355.677736 -179.289556 
L 354.92809 -179.075314 
L 354.178444 -178.864935 
L 353.428798 -178.658441 
L 352.679152 -178.455854 
L 351.929506 -178.257194 
L 351.17986 -178.062482 
L 350.430214 -177.871737 
L 349.680568 -177.684978 
L 348.930922 -177.502224 
L 348.181276 -177.323492 
L 347.43163 -177.148801 
L 346.681984 -176.978166 
L 345.932338 -176.811604 
L 345.182692 -176.649132 
L 344.433046 -176.490763 
L 343.6834 -176.336512 
L 342.933755 -176.186393 
L 342.184109 -176.04042 
L 341.434463 -175.898605 
L 340.684817 -175.76096 
L 339.935171 -175.627497 
L 339.185525 -175.498226 
L 338.435879 -175.373159 
L 337.686233 -175.252304 
L 336.936587 -175.135671 
L 336.186941 -175.023269 
L 335.437295 -174.915104 
L 334.687649 -174.811186 
L 333.938003 -174.711519 
L 333.188357 -174.616111 
L 332.438711 -174.524966 
L 331.689065 -174.438091 
L 330.939419 -174.355488 
L 330.189773 -174.277162 
L 329.440127 -174.203116 
L 328.690481 -174.133352 
L 327.940835 -174.067871 
L 327.191189 -174.006676 
L 326.441543 -173.949767 
L 325.691897 -173.897143 
L 324.942251 -173.848805 
L 324.192605 -173.804751 
L 323.44296 -173.764978 
L 322.693314 -173.729486 
L 321.943668 -173.698269 
L 321.194022 -173.671326 
L 320.444376 -173.648651 
L 319.69473 -173.630241 
L 318.945084 -173.616088 
L 318.195438 -173.606187 
L 317.445792 -173.600532 
L 316.696146 -173.599115 
L 315.9465 -173.601928 
L 315.196854 -173.608963 
L 314.447208 -173.62021 
L 313.697562 -173.63566 
L 312.947916 -173.655303 
L 312.19827 -173.679127 
L 311.448624 -173.707121 
L 310.698978 -173.739273 
L 309.949332 -173.77557 
L 309.199686 -173.815999 
L 308.45004 -173.860545 
L 307.700394 -173.909196 
L 306.950748 -173.961934 
L 306.201102 -174.018746 
L 305.451456 -174.079614 
L 304.70181 -174.144522 
L 303.952165 -174.213452 
L 303.202519 -174.286386 
L 302.452873 -174.363307 
L 301.703227 -174.444194 
L 300.953581 -174.529028 
L 300.203935 -174.617789 
L 299.454289 -174.710455 
L 298.704643 -174.807007 
L 297.954997 -174.907422 
L 297.205351 -175.011676 
L 296.455705 -175.119749 
L 295.706059 -175.231615 
L 294.956413 -175.34725 
L 294.206767 -175.466631 
L 293.457121 -175.589732 
L 292.707475 -175.716527 
L 291.957829 -175.84699 
L 291.208183 -175.981094 
L 290.458537 -176.118812 
L 289.708891 -176.260116 
L 288.959245 -176.404979 
L 288.209599 -176.553371 
L 287.459953 -176.705262 
L 286.710307 -176.860624 
L 285.960661 -177.019425 
L 285.211015 -177.181635 
L 284.46137 -177.347223 
L 283.711724 -177.516157 
L 282.962078 -177.688405 
L 282.212432 -177.863934 
L 281.462786 -178.04271 
L 280.71314 -178.224701 
L 279.963494 -178.409872 
L 279.213848 -178.598189 
L 278.464202 -178.789616 
L 277.714556 -178.984118 
L 276.96491 -179.18166 
L 276.215264 -179.382205 
L 275.465618 -179.585716 
L 274.715972 -179.792155 
L 273.966326 -180.001487 
L 273.21668 -180.213672 
L 272.467034 -180.428672 
L 271.717388 -180.646448 
L 270.967742 -180.866962 
L 270.218096 -181.090172 
L 269.46845 -181.316041 
L 268.718804 -181.544526 
L 267.969158 -181.775589 
L 267.219512 -182.009186 
L 266.469866 -182.245277 
L 265.72022 -182.483821 
L 264.970575 -182.724774 
L 264.220929 -182.968095 
L 263.471283 -183.21374 
L 262.721637 -183.461667 
L 261.971991 -183.711832 
L 261.222345 -183.96419 
L 260.472699 -184.218699 
L 259.723053 -184.475313 
L 258.973407 -184.733988 
L 258.223761 -184.994679 
L 257.474115 -185.25734 
L 256.724469 -185.521926 
L 255.974823 -185.788391 
L 255.225177 -186.056689 
L 254.475531 -186.326773 
L 253.725885 -186.598597 
L 252.976239 -186.872114 
L 252.226593 -187.147276 
L 251.476947 -187.424037 
L 250.727301 -187.702348 
L 249.977655 -187.982162 
L 249.228009 -188.263431 
L 248.478363 -188.546107 
L 247.728717 -188.83014 
L 246.979071 -189.115483 
L 246.229425 -189.402087 
L 245.47978 -189.689902 
L 244.730134 -189.97888 
L 243.980488 -190.26897 
L 243.230842 -190.560124 
L 242.481196 -190.852292 
L 241.73155 -191.145424 
L 240.981904 -191.43947 
L 240.232258 -191.73438 
L 239.482612 -192.030103 
L 238.732966 -192.326591 
L 237.98332 -192.623791 
L 237.233674 -192.921653 
L 236.484028 -193.220128 
L 235.734382 -193.519164 
L 234.984736 -193.81871 
L 234.23509 -194.118716 
L 233.485444 -194.41913 
L 232.735798 -194.719902 
L 231.986152 -195.02098 
L 231.236506 -195.322314 
L 230.48686 -195.623852 
L 229.737214 -195.925543 
L 228.987568 -196.227337 
L 228.237922 -196.529181 
L 227.488276 -196.831025 
L 226.73863 -197.132817 
L 225.988985 -197.434507 
L 225.239339 -197.736043 
L 224.489693 -198.037373 
L 223.740047 -198.338448 
L 222.990401 -198.639215 
L 222.240755 -198.939624 
L 221.491109 -199.239624 
L 220.741463 -199.539163 
L 219.991817 -199.838192 
L 219.242171 -200.136658 
L 218.492525 -200.434512 
L 217.742879 -200.731703 
L 216.993233 -201.02818 
L 216.243587 -201.323893 
L 215.493941 -201.618791 
L 214.744295 -201.912825 
L 213.994649 -202.205944 
L 213.245003 -202.498098 
L 212.495357 -202.789238 
L 211.745711 -203.079314 
L 210.996065 -203.368275 
L 210.246419 -203.656074 
L 209.496773 -203.942661 
L 208.747127 -204.227986 
L 207.997481 -204.512002 
L 207.247835 -204.794658 
L 206.49819 -205.075908 
L 205.748544 -205.355701 
L 204.998898 -205.633992 
L 204.249252 -205.910731 
L 203.499606 -206.185871 
L 202.74996 -206.459365 
L 202.000314 -206.731165 
L 201.250668 -207.001225 
L 200.501022 -207.269498 
L 199.751376 -207.535938 
L 199.00173 -207.800498 
L 198.252084 -208.063132 
L 197.502438 -208.323796 
L 196.752792 -208.582443 
L 196.003146 -208.839029 
L 195.2535 -209.093508 
L 194.503854 -209.345837 
L 193.754208 -209.595972 
L 193.004562 -209.843867 
L 192.254916 -210.089481 
L 191.50527 -210.33277 
L 190.755624 -210.57369 
L 190.005978 -210.812201 
L 189.256332 -211.048258 
L 188.506686 -211.281821 
L 187.75704 -211.512848 
L 187.007395 -211.741298 
L 186.257749 -211.96713 
L 185.508103 -212.190305 
L 184.758457 -212.410781 
L 184.008811 -212.628519 
L 183.259165 -212.843481 
L 182.509519 -213.055627 
L 181.759873 -213.264919 
L 181.010227 -213.471319 
L 180.260581 -213.67479 
L 179.510935 -213.875293 
L 178.761289 -214.072794 
L 178.011643 -214.267254 
L 177.261997 -214.458639 
L 176.512351 -214.646913 
L 175.762705 -214.832041 
L 175.013059 -215.013988 
L 174.263413 -215.19272 
L 173.513767 -215.368204 
L 172.764121 -215.540407 
L 172.014475 -215.709295 
L 171.264829 -215.874837 
L 170.515183 -216.037001 
L 169.765537 -216.195755 
L 169.015891 -216.351069 
L 168.266245 -216.502913 
L 167.5166 -216.651257 
L 166.766954 -216.796071 
L 166.017308 -216.937326 
L 165.267662 -217.074995 
L 164.518016 -217.20905 
L 163.76837 -217.339462 
L 163.018724 -217.466207 
L 162.269078 -217.589257 
L 161.519432 -217.708587 
L 160.769786 -217.824171 
L 160.02014 -217.935985 
L 159.270494 -218.044005 
L 158.520848 -218.148207 
L 157.771202 -218.248569 
L 157.021556 -218.345068 
L 156.27191 -218.437681 
L 155.522264 -218.526388 
L 154.772618 -218.611169 
L 154.022972 -218.692001 
L 153.273326 -218.768867 
L 152.52368 -218.841747 
L 151.774034 -218.910622 
L 151.024388 -218.975475 
L 150.274742 -219.036287 
L 149.525096 -219.093043 
L 148.77545 -219.145726 
L 148.025805 -219.19432 
L 147.276159 -219.238811 
L 146.526513 -219.279183 
L 145.776867 -219.315423 
L 145.027221 -219.347518 
L 144.277575 -219.375455 
L 143.527929 -219.399222 
L 142.778283 -219.418807 
L 142.028637 -219.4342 
L 141.278991 -219.445389 
L 140.529345 -219.452366 
L 139.779699 -219.455122 
L 139.030053 -219.453646 
L 138.280407 -219.447933 
L 137.530761 -219.437975 
L 136.781115 -219.423764 
L 136.031469 -219.405294 
L 135.281823 -219.382561 
L 134.532177 -219.355559 
L 133.782531 -219.324285 
L 133.032885 -219.288733 
L 132.283239 -219.248902 
L 131.533593 -219.204789 
L 130.783947 -219.156392 
L 130.034301 -219.10371 
L 129.284655 -219.046742 
L 128.535009 -218.985488 
L 127.785364 -218.919949 
L 127.035718 -218.850127 
L 126.286072 -218.776022 
L 125.536426 -218.697637 
L 124.78678 -218.614976 
L 124.037134 -218.528042 
L 123.287488 -218.436839 
L 122.537842 -218.341372 
L 121.788196 -218.241647 
L 121.03855 -218.13767 
L 120.288904 -218.029448 
L 119.539258 -217.916987 
L 118.789612 -217.800297 
L 118.039966 -217.679384 
L 117.29032 -217.554259 
L 116.540674 -217.424931 
L 115.791028 -217.291411 
L 115.041382 -217.153708 
L 114.291736 -217.011836 
L 113.54209 -216.865806 
L 112.792444 -216.715631 
L 112.042798 -216.561324 
L 111.293152 -216.402898 
L 110.543506 -216.240369 
L 109.79386 -216.073752 
L 109.044214 -215.903062 
L 108.294569 -215.728315 
L 107.544923 -215.549528 
L 106.795277 -215.366719 
L 106.045631 -215.179905 
L 105.295985 -214.989105 
L 104.546339 -214.794339 
L 103.796693 -214.595625 
L 103.047047 -214.392984 
L 102.297401 -214.186437 
L 101.547755 -213.976006 
L 100.798109 -213.761711 
L 100.048463 -213.543576 
L 99.298817 -213.321623 
L 98.549171 -213.095876 
L 97.799525 -212.86636 
L 97.049879 -212.633098 
L 96.300233 -212.396116 
L 95.550587 -212.155439 
L 94.800941 -211.911095 
z
" style="stroke: #d7e7f4; stroke-opacity: 0.92"/>
    </defs>
    <g clip-path="url(#pd24b2120f3)">
     <use xlink:href="#m2c4da77afe" x="0" y="288" style="fill: #d7e7f4; fill-opacity: 0.92; stroke: #d7e7f4; stroke-opacity: 0.92"/>
    </g>
   </g>
   <g id="matplotlib.axis_1"/>
   <g id="matplotlib.axis_2">
    <g id="ytick_1">
     <g id="line2d_1">
      <defs>
       <path id="mc4e449f2c0" d="M 0 0 
L -3.5 0 
" style="stroke: #666666; stroke-width: 0.75"/>
      </defs>
      <g>
       <use xlink:href="#mc4e449f2c0" x="31.081034" y="133.272" style="fill: #666666; stroke: #666666; stroke-width: 0.75"/>
      </g>
     </g>
     <g id="text_1">
      <text style="font-size: 18px; font-family: 'Noto Serif SC', 'Songti SC', 'SimSun', 'STSong', 'NSimSun', serif; text-anchor: end; fill: #666666" x="24.081034" y="140.472" transform="rotate(-0 24.081034 140.472)">1</text>
     </g>
    </g>
    <g id="ytick_2">
     <g id="line2d_2">
      <g>
       <use xlink:href="#mc4e449f2c0" x="31.081034" y="25.992" style="fill: #666666; stroke: #666666; stroke-width: 0.75"/>
      </g>
     </g>
     <g id="text_2">
      <text style="font-size: 18px; font-family: 'Noto Serif SC', 'Songti SC', 'SimSun', 'STSong', 'NSimSun', serif; text-anchor: end; fill: #666666" x="24.081034" y="33.192" transform="rotate(-0 24.081034 33.192)">2</text>
     </g>
    </g>
   </g>
   <g id="line2d_3">
    <path d="M 31.081034 106.452 
L 49.072538 96.591247 
L 58.817935 91.496901 
L 67.064041 87.423788 
L 74.5605 83.963248 
L 81.307314 81.081436 
L 88.054128 78.448494 
L 94.051295 76.336891 
L 100.048463 74.456424 
L 106.045631 72.820095 
L 112.042798 71.438676 
L 117.29032 70.445741 
L 122.537842 69.658628 
L 127.785364 69.080051 
L 133.032885 68.711267 
L 138.280407 68.552067 
L 143.527929 68.600778 
L 148.77545 68.854274 
L 154.022972 69.307999 
L 160.02014 70.064015 
L 166.017308 71.062674 
L 172.014475 72.290705 
L 178.011643 73.732746 
L 184.758457 75.589219 
L 191.50527 77.66723 
L 199.00173 80.199502 
L 207.997481 83.487998 
L 219.242171 87.863342 
L 250.727301 100.297652 
L 259.723053 103.524687 
L 267.219512 105.990814 
L 273.966326 107.998513 
L 280.71314 109.775299 
L 286.710307 111.139376 
L 292.707475 112.283473 
L 298.704643 113.192993 
L 304.70181 113.855478 
L 309.949332 114.22443 
L 315.196854 114.391037 
L 320.444376 114.351349 
L 325.691897 114.102857 
L 330.939419 113.644512 
L 336.186941 112.976731 
L 341.434463 112.101395 
L 346.681984 111.021834 
L 352.679152 109.544146 
L 358.67632 107.815301 
L 364.673487 105.846917 
L 370.670655 103.652798 
L 377.417469 100.934417 
L 384.164282 97.975938 
L 391.660742 94.441576 
L 399.906848 90.302277 
L 409.652245 85.151486 
L 423.895518 77.330916 
L 443.386313 66.638513 
L 453.131711 61.543896 
L 461.377816 57.470469 
L 468.874276 54.009582 
L 475.62109 51.127411 
L 480.118966 49.34263 
L 480.118966 49.34263 
" clip-path="url(#pd24b2120f3)" style="fill: none; stroke: #4c78a8; stroke-width: 2.7; stroke-linecap: square"/>
   </g>
   <g id="LineCollection_1">
    <path d="M 94.624138 240.552 
L 94.624138 76.147065 
" clip-path="url(#pd24b2120f3)" style="fill: none; stroke-dasharray: 3.885,1.68; stroke-dashoffset: 0; stroke: #7d7d7d; stroke-width: 1.05"/>
   </g>
   <g id="LineCollection_2">
    <path d="M 382.686207 240.552 
L 382.686207 98.643219 
" clip-path="url(#pd24b2120f3)" style="fill: none; stroke-dasharray: 3.885,1.68; stroke-dashoffset: 0; stroke: #7d7d7d; stroke-width: 1.05"/>
   </g>
   <g id="patch_3">
    <path d="M 31.081034 278.1 
L 31.081034 9.9 
" style="fill: none; stroke: #777777; stroke-width: 0.8; stroke-linejoin: miter; stroke-linecap: square"/>
   </g>
   <g id="patch_4">
    <path d="M 9.9 240.552 
L 501.3 240.552 
" style="fill: none; stroke: #777777; stroke-width: 0.8; stroke-linejoin: miter; stroke-linecap: square"/>
   </g>
   <g id="text_3">
    <!-- $a$ -->
    <g style="fill: #4a4a4a" transform="translate(89.779138 255.552)">
     <text>
      <tspan x="0" y="-0.625" style="font-style: italic; font-size: 18px; font-family: 'STIXGeneral'; fill: #4a4a4a">a</tspan>
     </text>
    </g>
   </g>
   <g id="text_4">
    <!-- $x$ -->
    <g style="fill: #4a4a4a" transform="translate(378.411207 255.552)">
     <text>
      <tspan x="0" y="-0.625" style="font-style: italic; font-size: 18px; font-family: 'STIXGeneral'; fill: #4a4a4a">x</tspan>
     </text>
    </g>
   </g>
   <g id="text_5">
    <!-- $f(t)$ -->
    <g style="fill: #4c78a8" transform="translate(200.52931 31.356)">
     <text>
      <tspan x="0" y="-0.4375" style="font-style: italic; font-size: 18px; font-family: 'STIXGeneral'; fill: #4c78a8">f</tspan>
      <tspan x="12.220001" y="-0.4375" style="font-style: italic; font-size: 18px; font-family: 'STIXGeneral'; fill: #4c78a8">t</tspan>
      <tspan x="5.559998" y="-0.4375" style="font-size: 18px; font-family: 'STIXGeneral'; fill: #4c78a8">(</tspan>
      <tspan x="17.779999" y="-0.4375" style="font-size: 18px; font-family: 'STIXGeneral'; fill: #4c78a8">)</tspan>
     </text>
    </g>
   </g>
   <g id="patch_5">
    <path d="M 211.948804 194.311997 
Q 228.787769 179.472518 244.787934 165.372238 
" style="fill: none; stroke: #4a4a4a; stroke-linecap: round"/>
    <path d="M 236.573664 167.546121 
L 244.787934 165.372238 
L 241.598478 173.247984 
" style="fill: none; stroke: #4a4a4a; stroke-linecap: round"/>
   </g>
   <g id="text_6">
    <!-- $\int_a^x f(t)\,\mathrm{d}t$ -->
    <g style="fill: #4a4a4a" transform="translate(162.403448 215.8776)">
     <text>
      <tspan x="0" y="-0.83125" style="font-size: 18px; font-family: 'STIXGeneral'; fill: #4a4a4a">∫</tspan>
      <tspan x="24.839902" y="-0.83125" style="font-size: 18px; font-family: 'STIXGeneral'; fill: #4a4a4a">(</tspan>
      <tspan x="36.448896" y="-0.83125" style="font-size: 18px; font-family: 'STIXGeneral'; fill: #4a4a4a">)</tspan>
      <tspan x="45.062268" y="-0.83125" style="font-size: 18px; font-family: 'STIXGeneral'; fill: #4a4a4a">d</tspan>
      <tspan x="7.077087" y="8.596875" style="font-style: italic; font-size: 12.6px; font-family: 'STIXGeneral'; fill: #4a4a4a">a</tspan>
      <tspan x="13.652712" y="-13.1375" style="font-style: italic; font-size: 12.6px; font-family: 'STIXGeneral'; fill: #4a4a4a">x</tspan>
      <tspan x="19.557904" y="-0.83125" style="font-style: italic; font-size: 18px; font-family: 'STIXGeneral'; fill: #4a4a4a">f</tspan>
      <tspan x="31.166898" y="-0.83125" style="font-style: italic; font-size: 18px; font-family: 'STIXGeneral'; fill: #4a4a4a">t</tspan>
      <tspan x="54.562253" y="-0.83125" style="font-style: italic; font-size: 18px; font-family: 'STIXGeneral'; fill: #4a4a4a">t</tspan>
     </text>
    </g>
   </g>
  </g>
 </g>
 <defs>
  <clipPath id="pd24b2120f3">
   <rect x="9.9" y="9.9" width="491.4" height="268.2"/>
  </clipPath>
 </defs>
</svg>
